%TF.GenerationSoftware,KiCad,Pcbnew,7.0.10-7.0.10~ubuntu22.04.1*%
%TF.CreationDate,2024-01-31T00:33:20-08:00*%
%TF.ProjectId,r11,7231312e-6b69-4636-9164-5f7063625858,rev?*%
%TF.SameCoordinates,Original*%
%TF.FileFunction,Legend,Top*%
%TF.FilePolarity,Positive*%
%FSLAX46Y46*%
G04 Gerber Fmt 4.6, Leading zero omitted, Abs format (unit mm)*
G04 Created by KiCad (PCBNEW 7.0.10-7.0.10~ubuntu22.04.1) date 2024-01-31 00:33:20*
%MOMM*%
%LPD*%
G01*
G04 APERTURE LIST*
%ADD10C,0.150000*%
%ADD11C,0.100000*%
%ADD12C,0.120000*%
%ADD13C,7.000000*%
G04 APERTURE END LIST*
D10*
X110673903Y-106870009D02*
X111007236Y-106870009D01*
X111150093Y-107393819D02*
X110673903Y-107393819D01*
X110673903Y-107393819D02*
X110673903Y-106393819D01*
X110673903Y-106393819D02*
X111150093Y-106393819D01*
X111578665Y-107393819D02*
X111578665Y-106727152D01*
X111578665Y-106822390D02*
X111626284Y-106774771D01*
X111626284Y-106774771D02*
X111721522Y-106727152D01*
X111721522Y-106727152D02*
X111864379Y-106727152D01*
X111864379Y-106727152D02*
X111959617Y-106774771D01*
X111959617Y-106774771D02*
X112007236Y-106870009D01*
X112007236Y-106870009D02*
X112007236Y-107393819D01*
X112007236Y-106870009D02*
X112054855Y-106774771D01*
X112054855Y-106774771D02*
X112150093Y-106727152D01*
X112150093Y-106727152D02*
X112292950Y-106727152D01*
X112292950Y-106727152D02*
X112388189Y-106774771D01*
X112388189Y-106774771D02*
X112435808Y-106870009D01*
X112435808Y-106870009D02*
X112435808Y-107393819D01*
X112911998Y-106727152D02*
X112911998Y-107727152D01*
X112911998Y-106774771D02*
X113007236Y-106727152D01*
X113007236Y-106727152D02*
X113197712Y-106727152D01*
X113197712Y-106727152D02*
X113292950Y-106774771D01*
X113292950Y-106774771D02*
X113340569Y-106822390D01*
X113340569Y-106822390D02*
X113388188Y-106917628D01*
X113388188Y-106917628D02*
X113388188Y-107203342D01*
X113388188Y-107203342D02*
X113340569Y-107298580D01*
X113340569Y-107298580D02*
X113292950Y-107346200D01*
X113292950Y-107346200D02*
X113197712Y-107393819D01*
X113197712Y-107393819D02*
X113007236Y-107393819D01*
X113007236Y-107393819D02*
X112911998Y-107346200D01*
X113673903Y-106727152D02*
X114054855Y-106727152D01*
X113816760Y-106393819D02*
X113816760Y-107250961D01*
X113816760Y-107250961D02*
X113864379Y-107346200D01*
X113864379Y-107346200D02*
X113959617Y-107393819D01*
X113959617Y-107393819D02*
X114054855Y-107393819D01*
X114292951Y-106727152D02*
X114531046Y-107393819D01*
X114769141Y-106727152D02*
X114531046Y-107393819D01*
X114531046Y-107393819D02*
X114435808Y-107631914D01*
X114435808Y-107631914D02*
X114388189Y-107679533D01*
X114388189Y-107679533D02*
X114292951Y-107727152D01*
X115864380Y-107346200D02*
X115959618Y-107393819D01*
X115959618Y-107393819D02*
X116150094Y-107393819D01*
X116150094Y-107393819D02*
X116245332Y-107346200D01*
X116245332Y-107346200D02*
X116292951Y-107250961D01*
X116292951Y-107250961D02*
X116292951Y-107203342D01*
X116292951Y-107203342D02*
X116245332Y-107108104D01*
X116245332Y-107108104D02*
X116150094Y-107060485D01*
X116150094Y-107060485D02*
X116007237Y-107060485D01*
X116007237Y-107060485D02*
X115911999Y-107012866D01*
X115911999Y-107012866D02*
X115864380Y-106917628D01*
X115864380Y-106917628D02*
X115864380Y-106870009D01*
X115864380Y-106870009D02*
X115911999Y-106774771D01*
X115911999Y-106774771D02*
X116007237Y-106727152D01*
X116007237Y-106727152D02*
X116150094Y-106727152D01*
X116150094Y-106727152D02*
X116245332Y-106774771D01*
X116721523Y-106727152D02*
X116721523Y-107727152D01*
X116721523Y-106774771D02*
X116816761Y-106727152D01*
X116816761Y-106727152D02*
X117007237Y-106727152D01*
X117007237Y-106727152D02*
X117102475Y-106774771D01*
X117102475Y-106774771D02*
X117150094Y-106822390D01*
X117150094Y-106822390D02*
X117197713Y-106917628D01*
X117197713Y-106917628D02*
X117197713Y-107203342D01*
X117197713Y-107203342D02*
X117150094Y-107298580D01*
X117150094Y-107298580D02*
X117102475Y-107346200D01*
X117102475Y-107346200D02*
X117007237Y-107393819D01*
X117007237Y-107393819D02*
X116816761Y-107393819D01*
X116816761Y-107393819D02*
X116721523Y-107346200D01*
X118054856Y-107393819D02*
X118054856Y-106870009D01*
X118054856Y-106870009D02*
X118007237Y-106774771D01*
X118007237Y-106774771D02*
X117911999Y-106727152D01*
X117911999Y-106727152D02*
X117721523Y-106727152D01*
X117721523Y-106727152D02*
X117626285Y-106774771D01*
X118054856Y-107346200D02*
X117959618Y-107393819D01*
X117959618Y-107393819D02*
X117721523Y-107393819D01*
X117721523Y-107393819D02*
X117626285Y-107346200D01*
X117626285Y-107346200D02*
X117578666Y-107250961D01*
X117578666Y-107250961D02*
X117578666Y-107155723D01*
X117578666Y-107155723D02*
X117626285Y-107060485D01*
X117626285Y-107060485D02*
X117721523Y-107012866D01*
X117721523Y-107012866D02*
X117959618Y-107012866D01*
X117959618Y-107012866D02*
X118054856Y-106965247D01*
X118959618Y-107346200D02*
X118864380Y-107393819D01*
X118864380Y-107393819D02*
X118673904Y-107393819D01*
X118673904Y-107393819D02*
X118578666Y-107346200D01*
X118578666Y-107346200D02*
X118531047Y-107298580D01*
X118531047Y-107298580D02*
X118483428Y-107203342D01*
X118483428Y-107203342D02*
X118483428Y-106917628D01*
X118483428Y-106917628D02*
X118531047Y-106822390D01*
X118531047Y-106822390D02*
X118578666Y-106774771D01*
X118578666Y-106774771D02*
X118673904Y-106727152D01*
X118673904Y-106727152D02*
X118864380Y-106727152D01*
X118864380Y-106727152D02*
X118959618Y-106774771D01*
X119769142Y-107346200D02*
X119673904Y-107393819D01*
X119673904Y-107393819D02*
X119483428Y-107393819D01*
X119483428Y-107393819D02*
X119388190Y-107346200D01*
X119388190Y-107346200D02*
X119340571Y-107250961D01*
X119340571Y-107250961D02*
X119340571Y-106870009D01*
X119340571Y-106870009D02*
X119388190Y-106774771D01*
X119388190Y-106774771D02*
X119483428Y-106727152D01*
X119483428Y-106727152D02*
X119673904Y-106727152D01*
X119673904Y-106727152D02*
X119769142Y-106774771D01*
X119769142Y-106774771D02*
X119816761Y-106870009D01*
X119816761Y-106870009D02*
X119816761Y-106965247D01*
X119816761Y-106965247D02*
X119340571Y-107060485D01*
X121435809Y-107346200D02*
X121340571Y-107393819D01*
X121340571Y-107393819D02*
X121150095Y-107393819D01*
X121150095Y-107393819D02*
X121054857Y-107346200D01*
X121054857Y-107346200D02*
X121007238Y-107298580D01*
X121007238Y-107298580D02*
X120959619Y-107203342D01*
X120959619Y-107203342D02*
X120959619Y-106917628D01*
X120959619Y-106917628D02*
X121007238Y-106822390D01*
X121007238Y-106822390D02*
X121054857Y-106774771D01*
X121054857Y-106774771D02*
X121150095Y-106727152D01*
X121150095Y-106727152D02*
X121340571Y-106727152D01*
X121340571Y-106727152D02*
X121435809Y-106774771D01*
X121864381Y-107393819D02*
X121864381Y-106727152D01*
X121864381Y-106917628D02*
X121912000Y-106822390D01*
X121912000Y-106822390D02*
X121959619Y-106774771D01*
X121959619Y-106774771D02*
X122054857Y-106727152D01*
X122054857Y-106727152D02*
X122150095Y-106727152D01*
X122912000Y-107393819D02*
X122912000Y-106870009D01*
X122912000Y-106870009D02*
X122864381Y-106774771D01*
X122864381Y-106774771D02*
X122769143Y-106727152D01*
X122769143Y-106727152D02*
X122578667Y-106727152D01*
X122578667Y-106727152D02*
X122483429Y-106774771D01*
X122912000Y-107346200D02*
X122816762Y-107393819D01*
X122816762Y-107393819D02*
X122578667Y-107393819D01*
X122578667Y-107393819D02*
X122483429Y-107346200D01*
X122483429Y-107346200D02*
X122435810Y-107250961D01*
X122435810Y-107250961D02*
X122435810Y-107155723D01*
X122435810Y-107155723D02*
X122483429Y-107060485D01*
X122483429Y-107060485D02*
X122578667Y-107012866D01*
X122578667Y-107012866D02*
X122816762Y-107012866D01*
X122816762Y-107012866D02*
X122912000Y-106965247D01*
X123292953Y-106727152D02*
X123531048Y-107393819D01*
X123531048Y-107393819D02*
X123769143Y-106727152D01*
X124531048Y-107346200D02*
X124435810Y-107393819D01*
X124435810Y-107393819D02*
X124245334Y-107393819D01*
X124245334Y-107393819D02*
X124150096Y-107346200D01*
X124150096Y-107346200D02*
X124102477Y-107250961D01*
X124102477Y-107250961D02*
X124102477Y-106870009D01*
X124102477Y-106870009D02*
X124150096Y-106774771D01*
X124150096Y-106774771D02*
X124245334Y-106727152D01*
X124245334Y-106727152D02*
X124435810Y-106727152D01*
X124435810Y-106727152D02*
X124531048Y-106774771D01*
X124531048Y-106774771D02*
X124578667Y-106870009D01*
X124578667Y-106870009D02*
X124578667Y-106965247D01*
X124578667Y-106965247D02*
X124102477Y-107060485D01*
X124959620Y-107346200D02*
X125054858Y-107393819D01*
X125054858Y-107393819D02*
X125245334Y-107393819D01*
X125245334Y-107393819D02*
X125340572Y-107346200D01*
X125340572Y-107346200D02*
X125388191Y-107250961D01*
X125388191Y-107250961D02*
X125388191Y-107203342D01*
X125388191Y-107203342D02*
X125340572Y-107108104D01*
X125340572Y-107108104D02*
X125245334Y-107060485D01*
X125245334Y-107060485D02*
X125102477Y-107060485D01*
X125102477Y-107060485D02*
X125007239Y-107012866D01*
X125007239Y-107012866D02*
X124959620Y-106917628D01*
X124959620Y-106917628D02*
X124959620Y-106870009D01*
X124959620Y-106870009D02*
X125007239Y-106774771D01*
X125007239Y-106774771D02*
X125102477Y-106727152D01*
X125102477Y-106727152D02*
X125245334Y-106727152D01*
X125245334Y-106727152D02*
X125340572Y-106774771D01*
X126435811Y-106727152D02*
X126816763Y-106727152D01*
X126578668Y-106393819D02*
X126578668Y-107250961D01*
X126578668Y-107250961D02*
X126626287Y-107346200D01*
X126626287Y-107346200D02*
X126721525Y-107393819D01*
X126721525Y-107393819D02*
X126816763Y-107393819D01*
X127531049Y-107346200D02*
X127435811Y-107393819D01*
X127435811Y-107393819D02*
X127245335Y-107393819D01*
X127245335Y-107393819D02*
X127150097Y-107346200D01*
X127150097Y-107346200D02*
X127102478Y-107250961D01*
X127102478Y-107250961D02*
X127102478Y-106870009D01*
X127102478Y-106870009D02*
X127150097Y-106774771D01*
X127150097Y-106774771D02*
X127245335Y-106727152D01*
X127245335Y-106727152D02*
X127435811Y-106727152D01*
X127435811Y-106727152D02*
X127531049Y-106774771D01*
X127531049Y-106774771D02*
X127578668Y-106870009D01*
X127578668Y-106870009D02*
X127578668Y-106965247D01*
X127578668Y-106965247D02*
X127102478Y-107060485D01*
X127912002Y-107393819D02*
X128435811Y-106727152D01*
X127912002Y-106727152D02*
X128435811Y-107393819D01*
X128673907Y-106727152D02*
X129054859Y-106727152D01*
X128816764Y-106393819D02*
X128816764Y-107250961D01*
X128816764Y-107250961D02*
X128864383Y-107346200D01*
X128864383Y-107346200D02*
X128959621Y-107393819D01*
X128959621Y-107393819D02*
X129054859Y-107393819D01*
X130150098Y-107012866D02*
X130912003Y-107012866D01*
X131388193Y-107012866D02*
X132150098Y-107012866D01*
X110340569Y-108003819D02*
X110340569Y-108813342D01*
X110340569Y-108813342D02*
X110388188Y-108908580D01*
X110388188Y-108908580D02*
X110435807Y-108956200D01*
X110435807Y-108956200D02*
X110531045Y-109003819D01*
X110531045Y-109003819D02*
X110721521Y-109003819D01*
X110721521Y-109003819D02*
X110816759Y-108956200D01*
X110816759Y-108956200D02*
X110864378Y-108908580D01*
X110864378Y-108908580D02*
X110911997Y-108813342D01*
X110911997Y-108813342D02*
X110911997Y-108003819D01*
X111388188Y-108337152D02*
X111388188Y-109003819D01*
X111388188Y-108432390D02*
X111435807Y-108384771D01*
X111435807Y-108384771D02*
X111531045Y-108337152D01*
X111531045Y-108337152D02*
X111673902Y-108337152D01*
X111673902Y-108337152D02*
X111769140Y-108384771D01*
X111769140Y-108384771D02*
X111816759Y-108480009D01*
X111816759Y-108480009D02*
X111816759Y-109003819D01*
X112721521Y-108956200D02*
X112626283Y-109003819D01*
X112626283Y-109003819D02*
X112435807Y-109003819D01*
X112435807Y-109003819D02*
X112340569Y-108956200D01*
X112340569Y-108956200D02*
X112292950Y-108908580D01*
X112292950Y-108908580D02*
X112245331Y-108813342D01*
X112245331Y-108813342D02*
X112245331Y-108527628D01*
X112245331Y-108527628D02*
X112292950Y-108432390D01*
X112292950Y-108432390D02*
X112340569Y-108384771D01*
X112340569Y-108384771D02*
X112435807Y-108337152D01*
X112435807Y-108337152D02*
X112626283Y-108337152D01*
X112626283Y-108337152D02*
X112721521Y-108384771D01*
X113292950Y-109003819D02*
X113197712Y-108956200D01*
X113197712Y-108956200D02*
X113150093Y-108860961D01*
X113150093Y-108860961D02*
X113150093Y-108003819D01*
X114054855Y-108956200D02*
X113959617Y-109003819D01*
X113959617Y-109003819D02*
X113769141Y-109003819D01*
X113769141Y-109003819D02*
X113673903Y-108956200D01*
X113673903Y-108956200D02*
X113626284Y-108860961D01*
X113626284Y-108860961D02*
X113626284Y-108480009D01*
X113626284Y-108480009D02*
X113673903Y-108384771D01*
X113673903Y-108384771D02*
X113769141Y-108337152D01*
X113769141Y-108337152D02*
X113959617Y-108337152D01*
X113959617Y-108337152D02*
X114054855Y-108384771D01*
X114054855Y-108384771D02*
X114102474Y-108480009D01*
X114102474Y-108480009D02*
X114102474Y-108575247D01*
X114102474Y-108575247D02*
X113626284Y-108670485D01*
X114959617Y-109003819D02*
X114959617Y-108480009D01*
X114959617Y-108480009D02*
X114911998Y-108384771D01*
X114911998Y-108384771D02*
X114816760Y-108337152D01*
X114816760Y-108337152D02*
X114626284Y-108337152D01*
X114626284Y-108337152D02*
X114531046Y-108384771D01*
X114959617Y-108956200D02*
X114864379Y-109003819D01*
X114864379Y-109003819D02*
X114626284Y-109003819D01*
X114626284Y-109003819D02*
X114531046Y-108956200D01*
X114531046Y-108956200D02*
X114483427Y-108860961D01*
X114483427Y-108860961D02*
X114483427Y-108765723D01*
X114483427Y-108765723D02*
X114531046Y-108670485D01*
X114531046Y-108670485D02*
X114626284Y-108622866D01*
X114626284Y-108622866D02*
X114864379Y-108622866D01*
X114864379Y-108622866D02*
X114959617Y-108575247D01*
X115435808Y-109003819D02*
X115435808Y-108337152D01*
X115435808Y-108527628D02*
X115483427Y-108432390D01*
X115483427Y-108432390D02*
X115531046Y-108384771D01*
X115531046Y-108384771D02*
X115626284Y-108337152D01*
X115626284Y-108337152D02*
X115721522Y-108337152D01*
X116721523Y-108337152D02*
X116911999Y-109003819D01*
X116911999Y-109003819D02*
X117102475Y-108527628D01*
X117102475Y-108527628D02*
X117292951Y-109003819D01*
X117292951Y-109003819D02*
X117483427Y-108337152D01*
X117864380Y-109003819D02*
X117864380Y-108003819D01*
X118292951Y-109003819D02*
X118292951Y-108480009D01*
X118292951Y-108480009D02*
X118245332Y-108384771D01*
X118245332Y-108384771D02*
X118150094Y-108337152D01*
X118150094Y-108337152D02*
X118007237Y-108337152D01*
X118007237Y-108337152D02*
X117911999Y-108384771D01*
X117911999Y-108384771D02*
X117864380Y-108432390D01*
X119197713Y-109003819D02*
X119197713Y-108480009D01*
X119197713Y-108480009D02*
X119150094Y-108384771D01*
X119150094Y-108384771D02*
X119054856Y-108337152D01*
X119054856Y-108337152D02*
X118864380Y-108337152D01*
X118864380Y-108337152D02*
X118769142Y-108384771D01*
X119197713Y-108956200D02*
X119102475Y-109003819D01*
X119102475Y-109003819D02*
X118864380Y-109003819D01*
X118864380Y-109003819D02*
X118769142Y-108956200D01*
X118769142Y-108956200D02*
X118721523Y-108860961D01*
X118721523Y-108860961D02*
X118721523Y-108765723D01*
X118721523Y-108765723D02*
X118769142Y-108670485D01*
X118769142Y-108670485D02*
X118864380Y-108622866D01*
X118864380Y-108622866D02*
X119102475Y-108622866D01*
X119102475Y-108622866D02*
X119197713Y-108575247D01*
X119531047Y-108337152D02*
X119911999Y-108337152D01*
X119673904Y-108003819D02*
X119673904Y-108860961D01*
X119673904Y-108860961D02*
X119721523Y-108956200D01*
X119721523Y-108956200D02*
X119816761Y-109003819D01*
X119816761Y-109003819D02*
X119911999Y-109003819D01*
X121388190Y-108956200D02*
X121292952Y-109003819D01*
X121292952Y-109003819D02*
X121102476Y-109003819D01*
X121102476Y-109003819D02*
X121007238Y-108956200D01*
X121007238Y-108956200D02*
X120959619Y-108860961D01*
X120959619Y-108860961D02*
X120959619Y-108480009D01*
X120959619Y-108480009D02*
X121007238Y-108384771D01*
X121007238Y-108384771D02*
X121102476Y-108337152D01*
X121102476Y-108337152D02*
X121292952Y-108337152D01*
X121292952Y-108337152D02*
X121388190Y-108384771D01*
X121388190Y-108384771D02*
X121435809Y-108480009D01*
X121435809Y-108480009D02*
X121435809Y-108575247D01*
X121435809Y-108575247D02*
X120959619Y-108670485D01*
X122007238Y-109003819D02*
X121912000Y-108956200D01*
X121912000Y-108956200D02*
X121864381Y-108860961D01*
X121864381Y-108860961D02*
X121864381Y-108003819D01*
X122340572Y-108956200D02*
X122435810Y-109003819D01*
X122435810Y-109003819D02*
X122626286Y-109003819D01*
X122626286Y-109003819D02*
X122721524Y-108956200D01*
X122721524Y-108956200D02*
X122769143Y-108860961D01*
X122769143Y-108860961D02*
X122769143Y-108813342D01*
X122769143Y-108813342D02*
X122721524Y-108718104D01*
X122721524Y-108718104D02*
X122626286Y-108670485D01*
X122626286Y-108670485D02*
X122483429Y-108670485D01*
X122483429Y-108670485D02*
X122388191Y-108622866D01*
X122388191Y-108622866D02*
X122340572Y-108527628D01*
X122340572Y-108527628D02*
X122340572Y-108480009D01*
X122340572Y-108480009D02*
X122388191Y-108384771D01*
X122388191Y-108384771D02*
X122483429Y-108337152D01*
X122483429Y-108337152D02*
X122626286Y-108337152D01*
X122626286Y-108337152D02*
X122721524Y-108384771D01*
X123578667Y-108956200D02*
X123483429Y-109003819D01*
X123483429Y-109003819D02*
X123292953Y-109003819D01*
X123292953Y-109003819D02*
X123197715Y-108956200D01*
X123197715Y-108956200D02*
X123150096Y-108860961D01*
X123150096Y-108860961D02*
X123150096Y-108480009D01*
X123150096Y-108480009D02*
X123197715Y-108384771D01*
X123197715Y-108384771D02*
X123292953Y-108337152D01*
X123292953Y-108337152D02*
X123483429Y-108337152D01*
X123483429Y-108337152D02*
X123578667Y-108384771D01*
X123578667Y-108384771D02*
X123626286Y-108480009D01*
X123626286Y-108480009D02*
X123626286Y-108575247D01*
X123626286Y-108575247D02*
X123150096Y-108670485D01*
X124673906Y-108337152D02*
X125054858Y-108337152D01*
X124816763Y-108003819D02*
X124816763Y-108860961D01*
X124816763Y-108860961D02*
X124864382Y-108956200D01*
X124864382Y-108956200D02*
X124959620Y-109003819D01*
X124959620Y-109003819D02*
X125054858Y-109003819D01*
X125531049Y-109003819D02*
X125435811Y-108956200D01*
X125435811Y-108956200D02*
X125388192Y-108908580D01*
X125388192Y-108908580D02*
X125340573Y-108813342D01*
X125340573Y-108813342D02*
X125340573Y-108527628D01*
X125340573Y-108527628D02*
X125388192Y-108432390D01*
X125388192Y-108432390D02*
X125435811Y-108384771D01*
X125435811Y-108384771D02*
X125531049Y-108337152D01*
X125531049Y-108337152D02*
X125673906Y-108337152D01*
X125673906Y-108337152D02*
X125769144Y-108384771D01*
X125769144Y-108384771D02*
X125816763Y-108432390D01*
X125816763Y-108432390D02*
X125864382Y-108527628D01*
X125864382Y-108527628D02*
X125864382Y-108813342D01*
X125864382Y-108813342D02*
X125816763Y-108908580D01*
X125816763Y-108908580D02*
X125769144Y-108956200D01*
X125769144Y-108956200D02*
X125673906Y-109003819D01*
X125673906Y-109003819D02*
X125531049Y-109003819D01*
X127054859Y-109003819D02*
X127054859Y-108337152D01*
X127054859Y-108003819D02*
X127007240Y-108051438D01*
X127007240Y-108051438D02*
X127054859Y-108099057D01*
X127054859Y-108099057D02*
X127102478Y-108051438D01*
X127102478Y-108051438D02*
X127054859Y-108003819D01*
X127054859Y-108003819D02*
X127054859Y-108099057D01*
X127531049Y-108337152D02*
X127531049Y-109003819D01*
X127531049Y-108432390D02*
X127578668Y-108384771D01*
X127578668Y-108384771D02*
X127673906Y-108337152D01*
X127673906Y-108337152D02*
X127816763Y-108337152D01*
X127816763Y-108337152D02*
X127912001Y-108384771D01*
X127912001Y-108384771D02*
X127959620Y-108480009D01*
X127959620Y-108480009D02*
X127959620Y-109003819D01*
X128864382Y-108956200D02*
X128769144Y-109003819D01*
X128769144Y-109003819D02*
X128578668Y-109003819D01*
X128578668Y-109003819D02*
X128483430Y-108956200D01*
X128483430Y-108956200D02*
X128435811Y-108908580D01*
X128435811Y-108908580D02*
X128388192Y-108813342D01*
X128388192Y-108813342D02*
X128388192Y-108527628D01*
X128388192Y-108527628D02*
X128435811Y-108432390D01*
X128435811Y-108432390D02*
X128483430Y-108384771D01*
X128483430Y-108384771D02*
X128578668Y-108337152D01*
X128578668Y-108337152D02*
X128769144Y-108337152D01*
X128769144Y-108337152D02*
X128864382Y-108384771D01*
X129435811Y-109003819D02*
X129340573Y-108956200D01*
X129340573Y-108956200D02*
X129292954Y-108860961D01*
X129292954Y-108860961D02*
X129292954Y-108003819D01*
X130245335Y-108337152D02*
X130245335Y-109003819D01*
X129816764Y-108337152D02*
X129816764Y-108860961D01*
X129816764Y-108860961D02*
X129864383Y-108956200D01*
X129864383Y-108956200D02*
X129959621Y-109003819D01*
X129959621Y-109003819D02*
X130102478Y-109003819D01*
X130102478Y-109003819D02*
X130197716Y-108956200D01*
X130197716Y-108956200D02*
X130245335Y-108908580D01*
X131150097Y-109003819D02*
X131150097Y-108003819D01*
X131150097Y-108956200D02*
X131054859Y-109003819D01*
X131054859Y-109003819D02*
X130864383Y-109003819D01*
X130864383Y-109003819D02*
X130769145Y-108956200D01*
X130769145Y-108956200D02*
X130721526Y-108908580D01*
X130721526Y-108908580D02*
X130673907Y-108813342D01*
X130673907Y-108813342D02*
X130673907Y-108527628D01*
X130673907Y-108527628D02*
X130721526Y-108432390D01*
X130721526Y-108432390D02*
X130769145Y-108384771D01*
X130769145Y-108384771D02*
X130864383Y-108337152D01*
X130864383Y-108337152D02*
X131054859Y-108337152D01*
X131054859Y-108337152D02*
X131150097Y-108384771D01*
X132007240Y-108956200D02*
X131912002Y-109003819D01*
X131912002Y-109003819D02*
X131721526Y-109003819D01*
X131721526Y-109003819D02*
X131626288Y-108956200D01*
X131626288Y-108956200D02*
X131578669Y-108860961D01*
X131578669Y-108860961D02*
X131578669Y-108480009D01*
X131578669Y-108480009D02*
X131626288Y-108384771D01*
X131626288Y-108384771D02*
X131721526Y-108337152D01*
X131721526Y-108337152D02*
X131912002Y-108337152D01*
X131912002Y-108337152D02*
X132007240Y-108384771D01*
X132007240Y-108384771D02*
X132054859Y-108480009D01*
X132054859Y-108480009D02*
X132054859Y-108575247D01*
X132054859Y-108575247D02*
X131578669Y-108670485D01*
X132531050Y-108956200D02*
X132531050Y-109003819D01*
X132531050Y-109003819D02*
X132483431Y-109099057D01*
X132483431Y-109099057D02*
X132435812Y-109146676D01*
X115054857Y-110566200D02*
X115197714Y-110613819D01*
X115197714Y-110613819D02*
X115435809Y-110613819D01*
X115435809Y-110613819D02*
X115531047Y-110566200D01*
X115531047Y-110566200D02*
X115578666Y-110518580D01*
X115578666Y-110518580D02*
X115626285Y-110423342D01*
X115626285Y-110423342D02*
X115626285Y-110328104D01*
X115626285Y-110328104D02*
X115578666Y-110232866D01*
X115578666Y-110232866D02*
X115531047Y-110185247D01*
X115531047Y-110185247D02*
X115435809Y-110137628D01*
X115435809Y-110137628D02*
X115245333Y-110090009D01*
X115245333Y-110090009D02*
X115150095Y-110042390D01*
X115150095Y-110042390D02*
X115102476Y-109994771D01*
X115102476Y-109994771D02*
X115054857Y-109899533D01*
X115054857Y-109899533D02*
X115054857Y-109804295D01*
X115054857Y-109804295D02*
X115102476Y-109709057D01*
X115102476Y-109709057D02*
X115150095Y-109661438D01*
X115150095Y-109661438D02*
X115245333Y-109613819D01*
X115245333Y-109613819D02*
X115483428Y-109613819D01*
X115483428Y-109613819D02*
X115626285Y-109661438D01*
X116197714Y-110613819D02*
X116102476Y-110566200D01*
X116102476Y-110566200D02*
X116054857Y-110518580D01*
X116054857Y-110518580D02*
X116007238Y-110423342D01*
X116007238Y-110423342D02*
X116007238Y-110137628D01*
X116007238Y-110137628D02*
X116054857Y-110042390D01*
X116054857Y-110042390D02*
X116102476Y-109994771D01*
X116102476Y-109994771D02*
X116197714Y-109947152D01*
X116197714Y-109947152D02*
X116340571Y-109947152D01*
X116340571Y-109947152D02*
X116435809Y-109994771D01*
X116435809Y-109994771D02*
X116483428Y-110042390D01*
X116483428Y-110042390D02*
X116531047Y-110137628D01*
X116531047Y-110137628D02*
X116531047Y-110423342D01*
X116531047Y-110423342D02*
X116483428Y-110518580D01*
X116483428Y-110518580D02*
X116435809Y-110566200D01*
X116435809Y-110566200D02*
X116340571Y-110613819D01*
X116340571Y-110613819D02*
X116197714Y-110613819D01*
X117721524Y-110613819D02*
X117721524Y-109613819D01*
X118864381Y-109947152D02*
X119054857Y-110613819D01*
X119054857Y-110613819D02*
X119245333Y-110137628D01*
X119245333Y-110137628D02*
X119435809Y-110613819D01*
X119435809Y-110613819D02*
X119626285Y-109947152D01*
X120007238Y-110613819D02*
X120007238Y-109947152D01*
X120007238Y-110137628D02*
X120054857Y-110042390D01*
X120054857Y-110042390D02*
X120102476Y-109994771D01*
X120102476Y-109994771D02*
X120197714Y-109947152D01*
X120197714Y-109947152D02*
X120292952Y-109947152D01*
X120769143Y-110613819D02*
X120673905Y-110566200D01*
X120673905Y-110566200D02*
X120626286Y-110518580D01*
X120626286Y-110518580D02*
X120578667Y-110423342D01*
X120578667Y-110423342D02*
X120578667Y-110137628D01*
X120578667Y-110137628D02*
X120626286Y-110042390D01*
X120626286Y-110042390D02*
X120673905Y-109994771D01*
X120673905Y-109994771D02*
X120769143Y-109947152D01*
X120769143Y-109947152D02*
X120912000Y-109947152D01*
X120912000Y-109947152D02*
X121007238Y-109994771D01*
X121007238Y-109994771D02*
X121054857Y-110042390D01*
X121054857Y-110042390D02*
X121102476Y-110137628D01*
X121102476Y-110137628D02*
X121102476Y-110423342D01*
X121102476Y-110423342D02*
X121054857Y-110518580D01*
X121054857Y-110518580D02*
X121007238Y-110566200D01*
X121007238Y-110566200D02*
X120912000Y-110613819D01*
X120912000Y-110613819D02*
X120769143Y-110613819D01*
X121388191Y-109947152D02*
X121769143Y-109947152D01*
X121531048Y-109613819D02*
X121531048Y-110470961D01*
X121531048Y-110470961D02*
X121578667Y-110566200D01*
X121578667Y-110566200D02*
X121673905Y-110613819D01*
X121673905Y-110613819D02*
X121769143Y-110613819D01*
X122483429Y-110566200D02*
X122388191Y-110613819D01*
X122388191Y-110613819D02*
X122197715Y-110613819D01*
X122197715Y-110613819D02*
X122102477Y-110566200D01*
X122102477Y-110566200D02*
X122054858Y-110470961D01*
X122054858Y-110470961D02*
X122054858Y-110090009D01*
X122054858Y-110090009D02*
X122102477Y-109994771D01*
X122102477Y-109994771D02*
X122197715Y-109947152D01*
X122197715Y-109947152D02*
X122388191Y-109947152D01*
X122388191Y-109947152D02*
X122483429Y-109994771D01*
X122483429Y-109994771D02*
X122531048Y-110090009D01*
X122531048Y-110090009D02*
X122531048Y-110185247D01*
X122531048Y-110185247D02*
X122054858Y-110280485D01*
X123721525Y-110613819D02*
X123721525Y-109613819D01*
X124150096Y-110613819D02*
X124150096Y-110090009D01*
X124150096Y-110090009D02*
X124102477Y-109994771D01*
X124102477Y-109994771D02*
X124007239Y-109947152D01*
X124007239Y-109947152D02*
X123864382Y-109947152D01*
X123864382Y-109947152D02*
X123769144Y-109994771D01*
X123769144Y-109994771D02*
X123721525Y-110042390D01*
X125054858Y-110613819D02*
X125054858Y-110090009D01*
X125054858Y-110090009D02*
X125007239Y-109994771D01*
X125007239Y-109994771D02*
X124912001Y-109947152D01*
X124912001Y-109947152D02*
X124721525Y-109947152D01*
X124721525Y-109947152D02*
X124626287Y-109994771D01*
X125054858Y-110566200D02*
X124959620Y-110613819D01*
X124959620Y-110613819D02*
X124721525Y-110613819D01*
X124721525Y-110613819D02*
X124626287Y-110566200D01*
X124626287Y-110566200D02*
X124578668Y-110470961D01*
X124578668Y-110470961D02*
X124578668Y-110375723D01*
X124578668Y-110375723D02*
X124626287Y-110280485D01*
X124626287Y-110280485D02*
X124721525Y-110232866D01*
X124721525Y-110232866D02*
X124959620Y-110232866D01*
X124959620Y-110232866D02*
X125054858Y-110185247D01*
X125531049Y-110613819D02*
X125531049Y-109947152D01*
X125531049Y-109613819D02*
X125483430Y-109661438D01*
X125483430Y-109661438D02*
X125531049Y-109709057D01*
X125531049Y-109709057D02*
X125578668Y-109661438D01*
X125578668Y-109661438D02*
X125531049Y-109613819D01*
X125531049Y-109613819D02*
X125531049Y-109709057D01*
X126007239Y-110613819D02*
X126007239Y-109613819D01*
X126102477Y-110232866D02*
X126388191Y-110613819D01*
X126388191Y-109947152D02*
X126007239Y-110328104D01*
X127245334Y-109947152D02*
X127245334Y-110613819D01*
X126816763Y-109947152D02*
X126816763Y-110470961D01*
X126816763Y-110470961D02*
X126864382Y-110566200D01*
X126864382Y-110566200D02*
X126959620Y-110613819D01*
X126959620Y-110613819D02*
X127102477Y-110613819D01*
X127102477Y-110613819D02*
X127197715Y-110566200D01*
X127197715Y-110566200D02*
X127245334Y-110518580D01*
X127721525Y-110518580D02*
X127769144Y-110566200D01*
X127769144Y-110566200D02*
X127721525Y-110613819D01*
X127721525Y-110613819D02*
X127673906Y-110566200D01*
X127673906Y-110566200D02*
X127721525Y-110518580D01*
X127721525Y-110518580D02*
X127721525Y-110613819D01*
X112928854Y-32368580D02*
X112881235Y-32416200D01*
X112881235Y-32416200D02*
X112738378Y-32463819D01*
X112738378Y-32463819D02*
X112643140Y-32463819D01*
X112643140Y-32463819D02*
X112500283Y-32416200D01*
X112500283Y-32416200D02*
X112405045Y-32320961D01*
X112405045Y-32320961D02*
X112357426Y-32225723D01*
X112357426Y-32225723D02*
X112309807Y-32035247D01*
X112309807Y-32035247D02*
X112309807Y-31892390D01*
X112309807Y-31892390D02*
X112357426Y-31701914D01*
X112357426Y-31701914D02*
X112405045Y-31606676D01*
X112405045Y-31606676D02*
X112500283Y-31511438D01*
X112500283Y-31511438D02*
X112643140Y-31463819D01*
X112643140Y-31463819D02*
X112738378Y-31463819D01*
X112738378Y-31463819D02*
X112881235Y-31511438D01*
X112881235Y-31511438D02*
X112928854Y-31559057D01*
X113500283Y-32463819D02*
X113405045Y-32416200D01*
X113405045Y-32416200D02*
X113357426Y-32368580D01*
X113357426Y-32368580D02*
X113309807Y-32273342D01*
X113309807Y-32273342D02*
X113309807Y-31987628D01*
X113309807Y-31987628D02*
X113357426Y-31892390D01*
X113357426Y-31892390D02*
X113405045Y-31844771D01*
X113405045Y-31844771D02*
X113500283Y-31797152D01*
X113500283Y-31797152D02*
X113643140Y-31797152D01*
X113643140Y-31797152D02*
X113738378Y-31844771D01*
X113738378Y-31844771D02*
X113785997Y-31892390D01*
X113785997Y-31892390D02*
X113833616Y-31987628D01*
X113833616Y-31987628D02*
X113833616Y-32273342D01*
X113833616Y-32273342D02*
X113785997Y-32368580D01*
X113785997Y-32368580D02*
X113738378Y-32416200D01*
X113738378Y-32416200D02*
X113643140Y-32463819D01*
X113643140Y-32463819D02*
X113500283Y-32463819D01*
X114405045Y-32463819D02*
X114309807Y-32416200D01*
X114309807Y-32416200D02*
X114262188Y-32320961D01*
X114262188Y-32320961D02*
X114262188Y-31463819D01*
X114928855Y-32463819D02*
X114833617Y-32416200D01*
X114833617Y-32416200D02*
X114785998Y-32368580D01*
X114785998Y-32368580D02*
X114738379Y-32273342D01*
X114738379Y-32273342D02*
X114738379Y-31987628D01*
X114738379Y-31987628D02*
X114785998Y-31892390D01*
X114785998Y-31892390D02*
X114833617Y-31844771D01*
X114833617Y-31844771D02*
X114928855Y-31797152D01*
X114928855Y-31797152D02*
X115071712Y-31797152D01*
X115071712Y-31797152D02*
X115166950Y-31844771D01*
X115166950Y-31844771D02*
X115214569Y-31892390D01*
X115214569Y-31892390D02*
X115262188Y-31987628D01*
X115262188Y-31987628D02*
X115262188Y-32273342D01*
X115262188Y-32273342D02*
X115214569Y-32368580D01*
X115214569Y-32368580D02*
X115166950Y-32416200D01*
X115166950Y-32416200D02*
X115071712Y-32463819D01*
X115071712Y-32463819D02*
X114928855Y-32463819D01*
X115690760Y-32463819D02*
X115690760Y-31797152D01*
X115690760Y-31987628D02*
X115738379Y-31892390D01*
X115738379Y-31892390D02*
X115785998Y-31844771D01*
X115785998Y-31844771D02*
X115881236Y-31797152D01*
X115881236Y-31797152D02*
X115976474Y-31797152D01*
X117643141Y-32368580D02*
X117595522Y-32416200D01*
X117595522Y-32416200D02*
X117452665Y-32463819D01*
X117452665Y-32463819D02*
X117357427Y-32463819D01*
X117357427Y-32463819D02*
X117214570Y-32416200D01*
X117214570Y-32416200D02*
X117119332Y-32320961D01*
X117119332Y-32320961D02*
X117071713Y-32225723D01*
X117071713Y-32225723D02*
X117024094Y-32035247D01*
X117024094Y-32035247D02*
X117024094Y-31892390D01*
X117024094Y-31892390D02*
X117071713Y-31701914D01*
X117071713Y-31701914D02*
X117119332Y-31606676D01*
X117119332Y-31606676D02*
X117214570Y-31511438D01*
X117214570Y-31511438D02*
X117357427Y-31463819D01*
X117357427Y-31463819D02*
X117452665Y-31463819D01*
X117452665Y-31463819D02*
X117595522Y-31511438D01*
X117595522Y-31511438D02*
X117643141Y-31559057D01*
X118214570Y-32463819D02*
X118119332Y-32416200D01*
X118119332Y-32416200D02*
X118071713Y-32368580D01*
X118071713Y-32368580D02*
X118024094Y-32273342D01*
X118024094Y-32273342D02*
X118024094Y-31987628D01*
X118024094Y-31987628D02*
X118071713Y-31892390D01*
X118071713Y-31892390D02*
X118119332Y-31844771D01*
X118119332Y-31844771D02*
X118214570Y-31797152D01*
X118214570Y-31797152D02*
X118357427Y-31797152D01*
X118357427Y-31797152D02*
X118452665Y-31844771D01*
X118452665Y-31844771D02*
X118500284Y-31892390D01*
X118500284Y-31892390D02*
X118547903Y-31987628D01*
X118547903Y-31987628D02*
X118547903Y-32273342D01*
X118547903Y-32273342D02*
X118500284Y-32368580D01*
X118500284Y-32368580D02*
X118452665Y-32416200D01*
X118452665Y-32416200D02*
X118357427Y-32463819D01*
X118357427Y-32463819D02*
X118214570Y-32463819D01*
X118976475Y-32463819D02*
X118976475Y-31797152D01*
X118976475Y-31892390D02*
X119024094Y-31844771D01*
X119024094Y-31844771D02*
X119119332Y-31797152D01*
X119119332Y-31797152D02*
X119262189Y-31797152D01*
X119262189Y-31797152D02*
X119357427Y-31844771D01*
X119357427Y-31844771D02*
X119405046Y-31940009D01*
X119405046Y-31940009D02*
X119405046Y-32463819D01*
X119405046Y-31940009D02*
X119452665Y-31844771D01*
X119452665Y-31844771D02*
X119547903Y-31797152D01*
X119547903Y-31797152D02*
X119690760Y-31797152D01*
X119690760Y-31797152D02*
X119785999Y-31844771D01*
X119785999Y-31844771D02*
X119833618Y-31940009D01*
X119833618Y-31940009D02*
X119833618Y-32463819D01*
X120309808Y-31797152D02*
X120309808Y-32797152D01*
X120309808Y-31844771D02*
X120405046Y-31797152D01*
X120405046Y-31797152D02*
X120595522Y-31797152D01*
X120595522Y-31797152D02*
X120690760Y-31844771D01*
X120690760Y-31844771D02*
X120738379Y-31892390D01*
X120738379Y-31892390D02*
X120785998Y-31987628D01*
X120785998Y-31987628D02*
X120785998Y-32273342D01*
X120785998Y-32273342D02*
X120738379Y-32368580D01*
X120738379Y-32368580D02*
X120690760Y-32416200D01*
X120690760Y-32416200D02*
X120595522Y-32463819D01*
X120595522Y-32463819D02*
X120405046Y-32463819D01*
X120405046Y-32463819D02*
X120309808Y-32416200D01*
X121643141Y-31797152D02*
X121643141Y-32463819D01*
X121214570Y-31797152D02*
X121214570Y-32320961D01*
X121214570Y-32320961D02*
X121262189Y-32416200D01*
X121262189Y-32416200D02*
X121357427Y-32463819D01*
X121357427Y-32463819D02*
X121500284Y-32463819D01*
X121500284Y-32463819D02*
X121595522Y-32416200D01*
X121595522Y-32416200D02*
X121643141Y-32368580D01*
X121976475Y-31797152D02*
X122357427Y-31797152D01*
X122119332Y-31463819D02*
X122119332Y-32320961D01*
X122119332Y-32320961D02*
X122166951Y-32416200D01*
X122166951Y-32416200D02*
X122262189Y-32463819D01*
X122262189Y-32463819D02*
X122357427Y-32463819D01*
X123071713Y-32416200D02*
X122976475Y-32463819D01*
X122976475Y-32463819D02*
X122785999Y-32463819D01*
X122785999Y-32463819D02*
X122690761Y-32416200D01*
X122690761Y-32416200D02*
X122643142Y-32320961D01*
X122643142Y-32320961D02*
X122643142Y-31940009D01*
X122643142Y-31940009D02*
X122690761Y-31844771D01*
X122690761Y-31844771D02*
X122785999Y-31797152D01*
X122785999Y-31797152D02*
X122976475Y-31797152D01*
X122976475Y-31797152D02*
X123071713Y-31844771D01*
X123071713Y-31844771D02*
X123119332Y-31940009D01*
X123119332Y-31940009D02*
X123119332Y-32035247D01*
X123119332Y-32035247D02*
X122643142Y-32130485D01*
X123547904Y-32463819D02*
X123547904Y-31797152D01*
X123547904Y-31987628D02*
X123595523Y-31892390D01*
X123595523Y-31892390D02*
X123643142Y-31844771D01*
X123643142Y-31844771D02*
X123738380Y-31797152D01*
X123738380Y-31797152D02*
X123833618Y-31797152D01*
X124928857Y-31940009D02*
X125262190Y-31940009D01*
X125405047Y-32463819D02*
X124928857Y-32463819D01*
X124928857Y-32463819D02*
X124928857Y-31463819D01*
X124928857Y-31463819D02*
X125405047Y-31463819D01*
X125738381Y-32463819D02*
X126262190Y-31797152D01*
X125738381Y-31797152D02*
X126262190Y-32463819D01*
X126500286Y-31797152D02*
X126881238Y-31797152D01*
X126643143Y-31463819D02*
X126643143Y-32320961D01*
X126643143Y-32320961D02*
X126690762Y-32416200D01*
X126690762Y-32416200D02*
X126786000Y-32463819D01*
X126786000Y-32463819D02*
X126881238Y-32463819D01*
X127595524Y-32416200D02*
X127500286Y-32463819D01*
X127500286Y-32463819D02*
X127309810Y-32463819D01*
X127309810Y-32463819D02*
X127214572Y-32416200D01*
X127214572Y-32416200D02*
X127166953Y-32320961D01*
X127166953Y-32320961D02*
X127166953Y-31940009D01*
X127166953Y-31940009D02*
X127214572Y-31844771D01*
X127214572Y-31844771D02*
X127309810Y-31797152D01*
X127309810Y-31797152D02*
X127500286Y-31797152D01*
X127500286Y-31797152D02*
X127595524Y-31844771D01*
X127595524Y-31844771D02*
X127643143Y-31940009D01*
X127643143Y-31940009D02*
X127643143Y-32035247D01*
X127643143Y-32035247D02*
X127166953Y-32130485D01*
X128071715Y-31797152D02*
X128071715Y-32463819D01*
X128071715Y-31892390D02*
X128119334Y-31844771D01*
X128119334Y-31844771D02*
X128214572Y-31797152D01*
X128214572Y-31797152D02*
X128357429Y-31797152D01*
X128357429Y-31797152D02*
X128452667Y-31844771D01*
X128452667Y-31844771D02*
X128500286Y-31940009D01*
X128500286Y-31940009D02*
X128500286Y-32463819D01*
X128928858Y-32416200D02*
X129024096Y-32463819D01*
X129024096Y-32463819D02*
X129214572Y-32463819D01*
X129214572Y-32463819D02*
X129309810Y-32416200D01*
X129309810Y-32416200D02*
X129357429Y-32320961D01*
X129357429Y-32320961D02*
X129357429Y-32273342D01*
X129357429Y-32273342D02*
X129309810Y-32178104D01*
X129309810Y-32178104D02*
X129214572Y-32130485D01*
X129214572Y-32130485D02*
X129071715Y-32130485D01*
X129071715Y-32130485D02*
X128976477Y-32082866D01*
X128976477Y-32082866D02*
X128928858Y-31987628D01*
X128928858Y-31987628D02*
X128928858Y-31940009D01*
X128928858Y-31940009D02*
X128976477Y-31844771D01*
X128976477Y-31844771D02*
X129071715Y-31797152D01*
X129071715Y-31797152D02*
X129214572Y-31797152D01*
X129214572Y-31797152D02*
X129309810Y-31844771D01*
X129786001Y-32463819D02*
X129786001Y-31797152D01*
X129786001Y-31463819D02*
X129738382Y-31511438D01*
X129738382Y-31511438D02*
X129786001Y-31559057D01*
X129786001Y-31559057D02*
X129833620Y-31511438D01*
X129833620Y-31511438D02*
X129786001Y-31463819D01*
X129786001Y-31463819D02*
X129786001Y-31559057D01*
X130405048Y-32463819D02*
X130309810Y-32416200D01*
X130309810Y-32416200D02*
X130262191Y-32368580D01*
X130262191Y-32368580D02*
X130214572Y-32273342D01*
X130214572Y-32273342D02*
X130214572Y-31987628D01*
X130214572Y-31987628D02*
X130262191Y-31892390D01*
X130262191Y-31892390D02*
X130309810Y-31844771D01*
X130309810Y-31844771D02*
X130405048Y-31797152D01*
X130405048Y-31797152D02*
X130547905Y-31797152D01*
X130547905Y-31797152D02*
X130643143Y-31844771D01*
X130643143Y-31844771D02*
X130690762Y-31892390D01*
X130690762Y-31892390D02*
X130738381Y-31987628D01*
X130738381Y-31987628D02*
X130738381Y-32273342D01*
X130738381Y-32273342D02*
X130690762Y-32368580D01*
X130690762Y-32368580D02*
X130643143Y-32416200D01*
X130643143Y-32416200D02*
X130547905Y-32463819D01*
X130547905Y-32463819D02*
X130405048Y-32463819D01*
X131166953Y-31797152D02*
X131166953Y-32463819D01*
X131166953Y-31892390D02*
X131214572Y-31844771D01*
X131214572Y-31844771D02*
X131309810Y-31797152D01*
X131309810Y-31797152D02*
X131452667Y-31797152D01*
X131452667Y-31797152D02*
X131547905Y-31844771D01*
X131547905Y-31844771D02*
X131595524Y-31940009D01*
X131595524Y-31940009D02*
X131595524Y-32463819D01*
X133166953Y-31940009D02*
X133309810Y-31987628D01*
X133309810Y-31987628D02*
X133357429Y-32035247D01*
X133357429Y-32035247D02*
X133405048Y-32130485D01*
X133405048Y-32130485D02*
X133405048Y-32273342D01*
X133405048Y-32273342D02*
X133357429Y-32368580D01*
X133357429Y-32368580D02*
X133309810Y-32416200D01*
X133309810Y-32416200D02*
X133214572Y-32463819D01*
X133214572Y-32463819D02*
X132833620Y-32463819D01*
X132833620Y-32463819D02*
X132833620Y-31463819D01*
X132833620Y-31463819D02*
X133166953Y-31463819D01*
X133166953Y-31463819D02*
X133262191Y-31511438D01*
X133262191Y-31511438D02*
X133309810Y-31559057D01*
X133309810Y-31559057D02*
X133357429Y-31654295D01*
X133357429Y-31654295D02*
X133357429Y-31749533D01*
X133357429Y-31749533D02*
X133309810Y-31844771D01*
X133309810Y-31844771D02*
X133262191Y-31892390D01*
X133262191Y-31892390D02*
X133166953Y-31940009D01*
X133166953Y-31940009D02*
X132833620Y-31940009D01*
X133976477Y-32463819D02*
X133881239Y-32416200D01*
X133881239Y-32416200D02*
X133833620Y-32368580D01*
X133833620Y-32368580D02*
X133786001Y-32273342D01*
X133786001Y-32273342D02*
X133786001Y-31987628D01*
X133786001Y-31987628D02*
X133833620Y-31892390D01*
X133833620Y-31892390D02*
X133881239Y-31844771D01*
X133881239Y-31844771D02*
X133976477Y-31797152D01*
X133976477Y-31797152D02*
X134119334Y-31797152D01*
X134119334Y-31797152D02*
X134214572Y-31844771D01*
X134214572Y-31844771D02*
X134262191Y-31892390D01*
X134262191Y-31892390D02*
X134309810Y-31987628D01*
X134309810Y-31987628D02*
X134309810Y-32273342D01*
X134309810Y-32273342D02*
X134262191Y-32368580D01*
X134262191Y-32368580D02*
X134214572Y-32416200D01*
X134214572Y-32416200D02*
X134119334Y-32463819D01*
X134119334Y-32463819D02*
X133976477Y-32463819D01*
X135166953Y-32463819D02*
X135166953Y-31940009D01*
X135166953Y-31940009D02*
X135119334Y-31844771D01*
X135119334Y-31844771D02*
X135024096Y-31797152D01*
X135024096Y-31797152D02*
X134833620Y-31797152D01*
X134833620Y-31797152D02*
X134738382Y-31844771D01*
X135166953Y-32416200D02*
X135071715Y-32463819D01*
X135071715Y-32463819D02*
X134833620Y-32463819D01*
X134833620Y-32463819D02*
X134738382Y-32416200D01*
X134738382Y-32416200D02*
X134690763Y-32320961D01*
X134690763Y-32320961D02*
X134690763Y-32225723D01*
X134690763Y-32225723D02*
X134738382Y-32130485D01*
X134738382Y-32130485D02*
X134833620Y-32082866D01*
X134833620Y-32082866D02*
X135071715Y-32082866D01*
X135071715Y-32082866D02*
X135166953Y-32035247D01*
X135643144Y-32463819D02*
X135643144Y-31797152D01*
X135643144Y-31987628D02*
X135690763Y-31892390D01*
X135690763Y-31892390D02*
X135738382Y-31844771D01*
X135738382Y-31844771D02*
X135833620Y-31797152D01*
X135833620Y-31797152D02*
X135928858Y-31797152D01*
X136690763Y-32463819D02*
X136690763Y-31463819D01*
X136690763Y-32416200D02*
X136595525Y-32463819D01*
X136595525Y-32463819D02*
X136405049Y-32463819D01*
X136405049Y-32463819D02*
X136309811Y-32416200D01*
X136309811Y-32416200D02*
X136262192Y-32368580D01*
X136262192Y-32368580D02*
X136214573Y-32273342D01*
X136214573Y-32273342D02*
X136214573Y-31987628D01*
X136214573Y-31987628D02*
X136262192Y-31892390D01*
X136262192Y-31892390D02*
X136309811Y-31844771D01*
X136309811Y-31844771D02*
X136405049Y-31797152D01*
X136405049Y-31797152D02*
X136595525Y-31797152D01*
X136595525Y-31797152D02*
X136690763Y-31844771D01*
X138214573Y-32844771D02*
X138166954Y-32797152D01*
X138166954Y-32797152D02*
X138071716Y-32654295D01*
X138071716Y-32654295D02*
X138024097Y-32559057D01*
X138024097Y-32559057D02*
X137976478Y-32416200D01*
X137976478Y-32416200D02*
X137928859Y-32178104D01*
X137928859Y-32178104D02*
X137928859Y-31987628D01*
X137928859Y-31987628D02*
X137976478Y-31749533D01*
X137976478Y-31749533D02*
X138024097Y-31606676D01*
X138024097Y-31606676D02*
X138071716Y-31511438D01*
X138071716Y-31511438D02*
X138166954Y-31368580D01*
X138166954Y-31368580D02*
X138214573Y-31320961D01*
X139166954Y-32368580D02*
X139119335Y-32416200D01*
X139119335Y-32416200D02*
X138976478Y-32463819D01*
X138976478Y-32463819D02*
X138881240Y-32463819D01*
X138881240Y-32463819D02*
X138738383Y-32416200D01*
X138738383Y-32416200D02*
X138643145Y-32320961D01*
X138643145Y-32320961D02*
X138595526Y-32225723D01*
X138595526Y-32225723D02*
X138547907Y-32035247D01*
X138547907Y-32035247D02*
X138547907Y-31892390D01*
X138547907Y-31892390D02*
X138595526Y-31701914D01*
X138595526Y-31701914D02*
X138643145Y-31606676D01*
X138643145Y-31606676D02*
X138738383Y-31511438D01*
X138738383Y-31511438D02*
X138881240Y-31463819D01*
X138881240Y-31463819D02*
X138976478Y-31463819D01*
X138976478Y-31463819D02*
X139119335Y-31511438D01*
X139119335Y-31511438D02*
X139166954Y-31559057D01*
X139738383Y-32463819D02*
X139643145Y-32416200D01*
X139643145Y-32416200D02*
X139595526Y-32368580D01*
X139595526Y-32368580D02*
X139547907Y-32273342D01*
X139547907Y-32273342D02*
X139547907Y-31987628D01*
X139547907Y-31987628D02*
X139595526Y-31892390D01*
X139595526Y-31892390D02*
X139643145Y-31844771D01*
X139643145Y-31844771D02*
X139738383Y-31797152D01*
X139738383Y-31797152D02*
X139881240Y-31797152D01*
X139881240Y-31797152D02*
X139976478Y-31844771D01*
X139976478Y-31844771D02*
X140024097Y-31892390D01*
X140024097Y-31892390D02*
X140071716Y-31987628D01*
X140071716Y-31987628D02*
X140071716Y-32273342D01*
X140071716Y-32273342D02*
X140024097Y-32368580D01*
X140024097Y-32368580D02*
X139976478Y-32416200D01*
X139976478Y-32416200D02*
X139881240Y-32463819D01*
X139881240Y-32463819D02*
X139738383Y-32463819D01*
X141071716Y-32368580D02*
X141024097Y-32416200D01*
X141024097Y-32416200D02*
X140881240Y-32463819D01*
X140881240Y-32463819D02*
X140786002Y-32463819D01*
X140786002Y-32463819D02*
X140643145Y-32416200D01*
X140643145Y-32416200D02*
X140547907Y-32320961D01*
X140547907Y-32320961D02*
X140500288Y-32225723D01*
X140500288Y-32225723D02*
X140452669Y-32035247D01*
X140452669Y-32035247D02*
X140452669Y-31892390D01*
X140452669Y-31892390D02*
X140500288Y-31701914D01*
X140500288Y-31701914D02*
X140547907Y-31606676D01*
X140547907Y-31606676D02*
X140643145Y-31511438D01*
X140643145Y-31511438D02*
X140786002Y-31463819D01*
X140786002Y-31463819D02*
X140881240Y-31463819D01*
X140881240Y-31463819D02*
X141024097Y-31511438D01*
X141024097Y-31511438D02*
X141071716Y-31559057D01*
X141643145Y-32463819D02*
X141547907Y-32416200D01*
X141547907Y-32416200D02*
X141500288Y-32368580D01*
X141500288Y-32368580D02*
X141452669Y-32273342D01*
X141452669Y-32273342D02*
X141452669Y-31987628D01*
X141452669Y-31987628D02*
X141500288Y-31892390D01*
X141500288Y-31892390D02*
X141547907Y-31844771D01*
X141547907Y-31844771D02*
X141643145Y-31797152D01*
X141643145Y-31797152D02*
X141786002Y-31797152D01*
X141786002Y-31797152D02*
X141881240Y-31844771D01*
X141881240Y-31844771D02*
X141928859Y-31892390D01*
X141928859Y-31892390D02*
X141976478Y-31987628D01*
X141976478Y-31987628D02*
X141976478Y-32273342D01*
X141976478Y-32273342D02*
X141928859Y-32368580D01*
X141928859Y-32368580D02*
X141881240Y-32416200D01*
X141881240Y-32416200D02*
X141786002Y-32463819D01*
X141786002Y-32463819D02*
X141643145Y-32463819D01*
X142405050Y-31940009D02*
X142738383Y-31940009D01*
X142881240Y-32463819D02*
X142405050Y-32463819D01*
X142405050Y-32463819D02*
X142405050Y-31463819D01*
X142405050Y-31463819D02*
X142881240Y-31463819D01*
X143214574Y-32463819D02*
X143738383Y-31797152D01*
X143214574Y-31797152D02*
X143738383Y-32463819D01*
X144452669Y-31940009D02*
X144595526Y-31987628D01*
X144595526Y-31987628D02*
X144643145Y-32035247D01*
X144643145Y-32035247D02*
X144690764Y-32130485D01*
X144690764Y-32130485D02*
X144690764Y-32273342D01*
X144690764Y-32273342D02*
X144643145Y-32368580D01*
X144643145Y-32368580D02*
X144595526Y-32416200D01*
X144595526Y-32416200D02*
X144500288Y-32463819D01*
X144500288Y-32463819D02*
X144119336Y-32463819D01*
X144119336Y-32463819D02*
X144119336Y-31463819D01*
X144119336Y-31463819D02*
X144452669Y-31463819D01*
X144452669Y-31463819D02*
X144547907Y-31511438D01*
X144547907Y-31511438D02*
X144595526Y-31559057D01*
X144595526Y-31559057D02*
X144643145Y-31654295D01*
X144643145Y-31654295D02*
X144643145Y-31749533D01*
X144643145Y-31749533D02*
X144595526Y-31844771D01*
X144595526Y-31844771D02*
X144547907Y-31892390D01*
X144547907Y-31892390D02*
X144452669Y-31940009D01*
X144452669Y-31940009D02*
X144119336Y-31940009D01*
X145262193Y-32463819D02*
X145166955Y-32416200D01*
X145166955Y-32416200D02*
X145119336Y-32368580D01*
X145119336Y-32368580D02*
X145071717Y-32273342D01*
X145071717Y-32273342D02*
X145071717Y-31987628D01*
X145071717Y-31987628D02*
X145119336Y-31892390D01*
X145119336Y-31892390D02*
X145166955Y-31844771D01*
X145166955Y-31844771D02*
X145262193Y-31797152D01*
X145262193Y-31797152D02*
X145405050Y-31797152D01*
X145405050Y-31797152D02*
X145500288Y-31844771D01*
X145500288Y-31844771D02*
X145547907Y-31892390D01*
X145547907Y-31892390D02*
X145595526Y-31987628D01*
X145595526Y-31987628D02*
X145595526Y-32273342D01*
X145595526Y-32273342D02*
X145547907Y-32368580D01*
X145547907Y-32368580D02*
X145500288Y-32416200D01*
X145500288Y-32416200D02*
X145405050Y-32463819D01*
X145405050Y-32463819D02*
X145262193Y-32463819D01*
X145928860Y-32844771D02*
X145976479Y-32797152D01*
X145976479Y-32797152D02*
X146071717Y-32654295D01*
X146071717Y-32654295D02*
X146119336Y-32559057D01*
X146119336Y-32559057D02*
X146166955Y-32416200D01*
X146166955Y-32416200D02*
X146214574Y-32178104D01*
X146214574Y-32178104D02*
X146214574Y-31987628D01*
X146214574Y-31987628D02*
X146166955Y-31749533D01*
X146166955Y-31749533D02*
X146119336Y-31606676D01*
X146119336Y-31606676D02*
X146071717Y-31511438D01*
X146071717Y-31511438D02*
X145976479Y-31368580D01*
X145976479Y-31368580D02*
X145928860Y-31320961D01*
X110928855Y-34073819D02*
X110928855Y-33407152D01*
X110928855Y-33597628D02*
X110976474Y-33502390D01*
X110976474Y-33502390D02*
X111024093Y-33454771D01*
X111024093Y-33454771D02*
X111119331Y-33407152D01*
X111119331Y-33407152D02*
X111214569Y-33407152D01*
X111976474Y-34073819D02*
X111976474Y-33550009D01*
X111976474Y-33550009D02*
X111928855Y-33454771D01*
X111928855Y-33454771D02*
X111833617Y-33407152D01*
X111833617Y-33407152D02*
X111643141Y-33407152D01*
X111643141Y-33407152D02*
X111547903Y-33454771D01*
X111976474Y-34026200D02*
X111881236Y-34073819D01*
X111881236Y-34073819D02*
X111643141Y-34073819D01*
X111643141Y-34073819D02*
X111547903Y-34026200D01*
X111547903Y-34026200D02*
X111500284Y-33930961D01*
X111500284Y-33930961D02*
X111500284Y-33835723D01*
X111500284Y-33835723D02*
X111547903Y-33740485D01*
X111547903Y-33740485D02*
X111643141Y-33692866D01*
X111643141Y-33692866D02*
X111881236Y-33692866D01*
X111881236Y-33692866D02*
X111976474Y-33645247D01*
X112357427Y-33407152D02*
X112595522Y-34073819D01*
X112833617Y-33407152D02*
X112595522Y-34073819D01*
X112595522Y-34073819D02*
X112500284Y-34311914D01*
X112500284Y-34311914D02*
X112452665Y-34359533D01*
X112452665Y-34359533D02*
X112357427Y-34407152D01*
X113595522Y-34026200D02*
X113500284Y-34073819D01*
X113500284Y-34073819D02*
X113309808Y-34073819D01*
X113309808Y-34073819D02*
X113214570Y-34026200D01*
X113214570Y-34026200D02*
X113166951Y-33930961D01*
X113166951Y-33930961D02*
X113166951Y-33550009D01*
X113166951Y-33550009D02*
X113214570Y-33454771D01*
X113214570Y-33454771D02*
X113309808Y-33407152D01*
X113309808Y-33407152D02*
X113500284Y-33407152D01*
X113500284Y-33407152D02*
X113595522Y-33454771D01*
X113595522Y-33454771D02*
X113643141Y-33550009D01*
X113643141Y-33550009D02*
X113643141Y-33645247D01*
X113643141Y-33645247D02*
X113166951Y-33740485D01*
X114690760Y-33597628D02*
X114643141Y-33550009D01*
X114643141Y-33550009D02*
X114547903Y-33502390D01*
X114547903Y-33502390D02*
X114452665Y-33502390D01*
X114452665Y-33502390D02*
X114357427Y-33550009D01*
X114357427Y-33550009D02*
X114309808Y-33597628D01*
X114309808Y-33597628D02*
X114262189Y-33692866D01*
X114262189Y-33692866D02*
X114262189Y-33788104D01*
X114262189Y-33788104D02*
X114309808Y-33883342D01*
X114309808Y-33883342D02*
X114357427Y-33930961D01*
X114357427Y-33930961D02*
X114452665Y-33978580D01*
X114452665Y-33978580D02*
X114547903Y-33978580D01*
X114547903Y-33978580D02*
X114643141Y-33930961D01*
X114643141Y-33930961D02*
X114690760Y-33883342D01*
X114690760Y-33502390D02*
X114690760Y-33883342D01*
X114690760Y-33883342D02*
X114738379Y-33930961D01*
X114738379Y-33930961D02*
X114785998Y-33930961D01*
X114785998Y-33930961D02*
X114881237Y-33883342D01*
X114881237Y-33883342D02*
X114928856Y-33788104D01*
X114928856Y-33788104D02*
X114928856Y-33550009D01*
X114928856Y-33550009D02*
X114833618Y-33407152D01*
X114833618Y-33407152D02*
X114690760Y-33311914D01*
X114690760Y-33311914D02*
X114500284Y-33264295D01*
X114500284Y-33264295D02*
X114309808Y-33311914D01*
X114309808Y-33311914D02*
X114166951Y-33407152D01*
X114166951Y-33407152D02*
X114071713Y-33550009D01*
X114071713Y-33550009D02*
X114024094Y-33740485D01*
X114024094Y-33740485D02*
X114071713Y-33930961D01*
X114071713Y-33930961D02*
X114166951Y-34073819D01*
X114166951Y-34073819D02*
X114309808Y-34169057D01*
X114309808Y-34169057D02*
X114500284Y-34216676D01*
X114500284Y-34216676D02*
X114690760Y-34169057D01*
X114690760Y-34169057D02*
X114833618Y-34073819D01*
X115500284Y-34073819D02*
X115405046Y-34026200D01*
X115405046Y-34026200D02*
X115357427Y-33930961D01*
X115357427Y-33930961D02*
X115357427Y-33073819D01*
X115881237Y-34073819D02*
X115881237Y-33407152D01*
X115881237Y-33073819D02*
X115833618Y-33121438D01*
X115833618Y-33121438D02*
X115881237Y-33169057D01*
X115881237Y-33169057D02*
X115928856Y-33121438D01*
X115928856Y-33121438D02*
X115881237Y-33073819D01*
X115881237Y-33073819D02*
X115881237Y-33169057D01*
X116785998Y-34073819D02*
X116785998Y-33073819D01*
X116785998Y-34026200D02*
X116690760Y-34073819D01*
X116690760Y-34073819D02*
X116500284Y-34073819D01*
X116500284Y-34073819D02*
X116405046Y-34026200D01*
X116405046Y-34026200D02*
X116357427Y-33978580D01*
X116357427Y-33978580D02*
X116309808Y-33883342D01*
X116309808Y-33883342D02*
X116309808Y-33597628D01*
X116309808Y-33597628D02*
X116357427Y-33502390D01*
X116357427Y-33502390D02*
X116405046Y-33454771D01*
X116405046Y-33454771D02*
X116500284Y-33407152D01*
X116500284Y-33407152D02*
X116690760Y-33407152D01*
X116690760Y-33407152D02*
X116785998Y-33454771D01*
X117262189Y-33978580D02*
X117309808Y-34026200D01*
X117309808Y-34026200D02*
X117262189Y-34073819D01*
X117262189Y-34073819D02*
X117214570Y-34026200D01*
X117214570Y-34026200D02*
X117262189Y-33978580D01*
X117262189Y-33978580D02*
X117262189Y-34073819D01*
X118166950Y-34026200D02*
X118071712Y-34073819D01*
X118071712Y-34073819D02*
X117881236Y-34073819D01*
X117881236Y-34073819D02*
X117785998Y-34026200D01*
X117785998Y-34026200D02*
X117738379Y-33978580D01*
X117738379Y-33978580D02*
X117690760Y-33883342D01*
X117690760Y-33883342D02*
X117690760Y-33597628D01*
X117690760Y-33597628D02*
X117738379Y-33502390D01*
X117738379Y-33502390D02*
X117785998Y-33454771D01*
X117785998Y-33454771D02*
X117881236Y-33407152D01*
X117881236Y-33407152D02*
X118071712Y-33407152D01*
X118071712Y-33407152D02*
X118166950Y-33454771D01*
X119024093Y-34026200D02*
X118928855Y-34073819D01*
X118928855Y-34073819D02*
X118738379Y-34073819D01*
X118738379Y-34073819D02*
X118643141Y-34026200D01*
X118643141Y-34026200D02*
X118595522Y-33978580D01*
X118595522Y-33978580D02*
X118547903Y-33883342D01*
X118547903Y-33883342D02*
X118547903Y-33597628D01*
X118547903Y-33597628D02*
X118595522Y-33502390D01*
X118595522Y-33502390D02*
X118643141Y-33454771D01*
X118643141Y-33454771D02*
X118738379Y-33407152D01*
X118738379Y-33407152D02*
X118928855Y-33407152D01*
X118928855Y-33407152D02*
X119024093Y-33454771D01*
X120452665Y-34407152D02*
X120452665Y-32978580D01*
X121405046Y-34407152D02*
X121405046Y-32978580D01*
X122833618Y-34026200D02*
X122928856Y-34073819D01*
X122928856Y-34073819D02*
X123119332Y-34073819D01*
X123119332Y-34073819D02*
X123214570Y-34026200D01*
X123214570Y-34026200D02*
X123262189Y-33930961D01*
X123262189Y-33930961D02*
X123262189Y-33883342D01*
X123262189Y-33883342D02*
X123214570Y-33788104D01*
X123214570Y-33788104D02*
X123119332Y-33740485D01*
X123119332Y-33740485D02*
X122976475Y-33740485D01*
X122976475Y-33740485D02*
X122881237Y-33692866D01*
X122881237Y-33692866D02*
X122833618Y-33597628D01*
X122833618Y-33597628D02*
X122833618Y-33550009D01*
X122833618Y-33550009D02*
X122881237Y-33454771D01*
X122881237Y-33454771D02*
X122976475Y-33407152D01*
X122976475Y-33407152D02*
X123119332Y-33407152D01*
X123119332Y-33407152D02*
X123214570Y-33454771D01*
X123547904Y-33407152D02*
X123928856Y-33407152D01*
X123690761Y-33073819D02*
X123690761Y-33930961D01*
X123690761Y-33930961D02*
X123738380Y-34026200D01*
X123738380Y-34026200D02*
X123833618Y-34073819D01*
X123833618Y-34073819D02*
X123928856Y-34073819D01*
X124262190Y-34073819D02*
X124262190Y-33407152D01*
X124262190Y-33597628D02*
X124309809Y-33502390D01*
X124309809Y-33502390D02*
X124357428Y-33454771D01*
X124357428Y-33454771D02*
X124452666Y-33407152D01*
X124452666Y-33407152D02*
X124547904Y-33407152D01*
X124881238Y-34073819D02*
X124881238Y-33407152D01*
X124881238Y-33073819D02*
X124833619Y-33121438D01*
X124833619Y-33121438D02*
X124881238Y-33169057D01*
X124881238Y-33169057D02*
X124928857Y-33121438D01*
X124928857Y-33121438D02*
X124881238Y-33073819D01*
X124881238Y-33073819D02*
X124881238Y-33169057D01*
X125785999Y-34026200D02*
X125690761Y-34073819D01*
X125690761Y-34073819D02*
X125500285Y-34073819D01*
X125500285Y-34073819D02*
X125405047Y-34026200D01*
X125405047Y-34026200D02*
X125357428Y-33978580D01*
X125357428Y-33978580D02*
X125309809Y-33883342D01*
X125309809Y-33883342D02*
X125309809Y-33597628D01*
X125309809Y-33597628D02*
X125357428Y-33502390D01*
X125357428Y-33502390D02*
X125405047Y-33454771D01*
X125405047Y-33454771D02*
X125500285Y-33407152D01*
X125500285Y-33407152D02*
X125690761Y-33407152D01*
X125690761Y-33407152D02*
X125785999Y-33454771D01*
X126214571Y-34073819D02*
X126214571Y-33073819D01*
X126309809Y-33692866D02*
X126595523Y-34073819D01*
X126595523Y-33407152D02*
X126214571Y-33788104D01*
X127643142Y-33597628D02*
X127595523Y-33550009D01*
X127595523Y-33550009D02*
X127500285Y-33502390D01*
X127500285Y-33502390D02*
X127405047Y-33502390D01*
X127405047Y-33502390D02*
X127309809Y-33550009D01*
X127309809Y-33550009D02*
X127262190Y-33597628D01*
X127262190Y-33597628D02*
X127214571Y-33692866D01*
X127214571Y-33692866D02*
X127214571Y-33788104D01*
X127214571Y-33788104D02*
X127262190Y-33883342D01*
X127262190Y-33883342D02*
X127309809Y-33930961D01*
X127309809Y-33930961D02*
X127405047Y-33978580D01*
X127405047Y-33978580D02*
X127500285Y-33978580D01*
X127500285Y-33978580D02*
X127595523Y-33930961D01*
X127595523Y-33930961D02*
X127643142Y-33883342D01*
X127643142Y-33502390D02*
X127643142Y-33883342D01*
X127643142Y-33883342D02*
X127690761Y-33930961D01*
X127690761Y-33930961D02*
X127738380Y-33930961D01*
X127738380Y-33930961D02*
X127833619Y-33883342D01*
X127833619Y-33883342D02*
X127881238Y-33788104D01*
X127881238Y-33788104D02*
X127881238Y-33550009D01*
X127881238Y-33550009D02*
X127786000Y-33407152D01*
X127786000Y-33407152D02*
X127643142Y-33311914D01*
X127643142Y-33311914D02*
X127452666Y-33264295D01*
X127452666Y-33264295D02*
X127262190Y-33311914D01*
X127262190Y-33311914D02*
X127119333Y-33407152D01*
X127119333Y-33407152D02*
X127024095Y-33550009D01*
X127024095Y-33550009D02*
X126976476Y-33740485D01*
X126976476Y-33740485D02*
X127024095Y-33930961D01*
X127024095Y-33930961D02*
X127119333Y-34073819D01*
X127119333Y-34073819D02*
X127262190Y-34169057D01*
X127262190Y-34169057D02*
X127452666Y-34216676D01*
X127452666Y-34216676D02*
X127643142Y-34169057D01*
X127643142Y-34169057D02*
X127786000Y-34073819D01*
X128214571Y-33407152D02*
X128452666Y-34073819D01*
X128690761Y-33407152D02*
X128452666Y-34073819D01*
X128452666Y-34073819D02*
X128357428Y-34311914D01*
X128357428Y-34311914D02*
X128309809Y-34359533D01*
X128309809Y-34359533D02*
X128214571Y-34407152D01*
X129500285Y-34073819D02*
X129500285Y-33550009D01*
X129500285Y-33550009D02*
X129452666Y-33454771D01*
X129452666Y-33454771D02*
X129357428Y-33407152D01*
X129357428Y-33407152D02*
X129166952Y-33407152D01*
X129166952Y-33407152D02*
X129071714Y-33454771D01*
X129500285Y-34026200D02*
X129405047Y-34073819D01*
X129405047Y-34073819D02*
X129166952Y-34073819D01*
X129166952Y-34073819D02*
X129071714Y-34026200D01*
X129071714Y-34026200D02*
X129024095Y-33930961D01*
X129024095Y-33930961D02*
X129024095Y-33835723D01*
X129024095Y-33835723D02*
X129071714Y-33740485D01*
X129071714Y-33740485D02*
X129166952Y-33692866D01*
X129166952Y-33692866D02*
X129405047Y-33692866D01*
X129405047Y-33692866D02*
X129500285Y-33645247D01*
X129976476Y-34073819D02*
X129976476Y-33073819D01*
X130071714Y-33692866D02*
X130357428Y-34073819D01*
X130357428Y-33407152D02*
X129976476Y-33788104D01*
X130786000Y-33978580D02*
X130833619Y-34026200D01*
X130833619Y-34026200D02*
X130786000Y-34073819D01*
X130786000Y-34073819D02*
X130738381Y-34026200D01*
X130738381Y-34026200D02*
X130786000Y-33978580D01*
X130786000Y-33978580D02*
X130786000Y-34073819D01*
X131262190Y-33407152D02*
X131262190Y-34073819D01*
X131262190Y-33502390D02*
X131309809Y-33454771D01*
X131309809Y-33454771D02*
X131405047Y-33407152D01*
X131405047Y-33407152D02*
X131547904Y-33407152D01*
X131547904Y-33407152D02*
X131643142Y-33454771D01*
X131643142Y-33454771D02*
X131690761Y-33550009D01*
X131690761Y-33550009D02*
X131690761Y-34073819D01*
X132547904Y-34026200D02*
X132452666Y-34073819D01*
X132452666Y-34073819D02*
X132262190Y-34073819D01*
X132262190Y-34073819D02*
X132166952Y-34026200D01*
X132166952Y-34026200D02*
X132119333Y-33930961D01*
X132119333Y-33930961D02*
X132119333Y-33550009D01*
X132119333Y-33550009D02*
X132166952Y-33454771D01*
X132166952Y-33454771D02*
X132262190Y-33407152D01*
X132262190Y-33407152D02*
X132452666Y-33407152D01*
X132452666Y-33407152D02*
X132547904Y-33454771D01*
X132547904Y-33454771D02*
X132595523Y-33550009D01*
X132595523Y-33550009D02*
X132595523Y-33645247D01*
X132595523Y-33645247D02*
X132119333Y-33740485D01*
X132881238Y-33407152D02*
X133262190Y-33407152D01*
X133024095Y-33073819D02*
X133024095Y-33930961D01*
X133024095Y-33930961D02*
X133071714Y-34026200D01*
X133071714Y-34026200D02*
X133166952Y-34073819D01*
X133166952Y-34073819D02*
X133262190Y-34073819D01*
X134595524Y-34407152D02*
X134595524Y-32978580D01*
X135547905Y-34407152D02*
X135547905Y-32978580D01*
X136881239Y-33407152D02*
X137262191Y-33407152D01*
X137024096Y-33073819D02*
X137024096Y-33930961D01*
X137024096Y-33930961D02*
X137071715Y-34026200D01*
X137071715Y-34026200D02*
X137166953Y-34073819D01*
X137166953Y-34073819D02*
X137262191Y-34073819D01*
X137547906Y-34026200D02*
X137643144Y-34073819D01*
X137643144Y-34073819D02*
X137833620Y-34073819D01*
X137833620Y-34073819D02*
X137928858Y-34026200D01*
X137928858Y-34026200D02*
X137976477Y-33930961D01*
X137976477Y-33930961D02*
X137976477Y-33883342D01*
X137976477Y-33883342D02*
X137928858Y-33788104D01*
X137928858Y-33788104D02*
X137833620Y-33740485D01*
X137833620Y-33740485D02*
X137690763Y-33740485D01*
X137690763Y-33740485D02*
X137595525Y-33692866D01*
X137595525Y-33692866D02*
X137547906Y-33597628D01*
X137547906Y-33597628D02*
X137547906Y-33550009D01*
X137547906Y-33550009D02*
X137595525Y-33454771D01*
X137595525Y-33454771D02*
X137690763Y-33407152D01*
X137690763Y-33407152D02*
X137833620Y-33407152D01*
X137833620Y-33407152D02*
X137928858Y-33454771D01*
X138405049Y-34073819D02*
X138405049Y-33073819D01*
X138833620Y-34073819D02*
X138833620Y-33550009D01*
X138833620Y-33550009D02*
X138786001Y-33454771D01*
X138786001Y-33454771D02*
X138690763Y-33407152D01*
X138690763Y-33407152D02*
X138547906Y-33407152D01*
X138547906Y-33407152D02*
X138452668Y-33454771D01*
X138452668Y-33454771D02*
X138405049Y-33502390D01*
X139738382Y-34073819D02*
X139738382Y-33550009D01*
X139738382Y-33550009D02*
X139690763Y-33454771D01*
X139690763Y-33454771D02*
X139595525Y-33407152D01*
X139595525Y-33407152D02*
X139405049Y-33407152D01*
X139405049Y-33407152D02*
X139309811Y-33454771D01*
X139738382Y-34026200D02*
X139643144Y-34073819D01*
X139643144Y-34073819D02*
X139405049Y-34073819D01*
X139405049Y-34073819D02*
X139309811Y-34026200D01*
X139309811Y-34026200D02*
X139262192Y-33930961D01*
X139262192Y-33930961D02*
X139262192Y-33835723D01*
X139262192Y-33835723D02*
X139309811Y-33740485D01*
X139309811Y-33740485D02*
X139405049Y-33692866D01*
X139405049Y-33692866D02*
X139643144Y-33692866D01*
X139643144Y-33692866D02*
X139738382Y-33645247D01*
X140214573Y-33407152D02*
X140214573Y-34073819D01*
X140214573Y-33502390D02*
X140262192Y-33454771D01*
X140262192Y-33454771D02*
X140357430Y-33407152D01*
X140357430Y-33407152D02*
X140500287Y-33407152D01*
X140500287Y-33407152D02*
X140595525Y-33454771D01*
X140595525Y-33454771D02*
X140643144Y-33550009D01*
X140643144Y-33550009D02*
X140643144Y-34073819D01*
X141119335Y-34073819D02*
X141119335Y-33073819D01*
X141214573Y-33692866D02*
X141500287Y-34073819D01*
X141500287Y-33407152D02*
X141119335Y-33788104D01*
X141881240Y-34026200D02*
X141976478Y-34073819D01*
X141976478Y-34073819D02*
X142166954Y-34073819D01*
X142166954Y-34073819D02*
X142262192Y-34026200D01*
X142262192Y-34026200D02*
X142309811Y-33930961D01*
X142309811Y-33930961D02*
X142309811Y-33883342D01*
X142309811Y-33883342D02*
X142262192Y-33788104D01*
X142262192Y-33788104D02*
X142166954Y-33740485D01*
X142166954Y-33740485D02*
X142024097Y-33740485D01*
X142024097Y-33740485D02*
X141928859Y-33692866D01*
X141928859Y-33692866D02*
X141881240Y-33597628D01*
X141881240Y-33597628D02*
X141881240Y-33550009D01*
X141881240Y-33550009D02*
X141928859Y-33454771D01*
X141928859Y-33454771D02*
X142024097Y-33407152D01*
X142024097Y-33407152D02*
X142166954Y-33407152D01*
X142166954Y-33407152D02*
X142262192Y-33454771D01*
X143357430Y-33597628D02*
X143309811Y-33550009D01*
X143309811Y-33550009D02*
X143214573Y-33502390D01*
X143214573Y-33502390D02*
X143119335Y-33502390D01*
X143119335Y-33502390D02*
X143024097Y-33550009D01*
X143024097Y-33550009D02*
X142976478Y-33597628D01*
X142976478Y-33597628D02*
X142928859Y-33692866D01*
X142928859Y-33692866D02*
X142928859Y-33788104D01*
X142928859Y-33788104D02*
X142976478Y-33883342D01*
X142976478Y-33883342D02*
X143024097Y-33930961D01*
X143024097Y-33930961D02*
X143119335Y-33978580D01*
X143119335Y-33978580D02*
X143214573Y-33978580D01*
X143214573Y-33978580D02*
X143309811Y-33930961D01*
X143309811Y-33930961D02*
X143357430Y-33883342D01*
X143357430Y-33502390D02*
X143357430Y-33883342D01*
X143357430Y-33883342D02*
X143405049Y-33930961D01*
X143405049Y-33930961D02*
X143452668Y-33930961D01*
X143452668Y-33930961D02*
X143547907Y-33883342D01*
X143547907Y-33883342D02*
X143595526Y-33788104D01*
X143595526Y-33788104D02*
X143595526Y-33550009D01*
X143595526Y-33550009D02*
X143500288Y-33407152D01*
X143500288Y-33407152D02*
X143357430Y-33311914D01*
X143357430Y-33311914D02*
X143166954Y-33264295D01*
X143166954Y-33264295D02*
X142976478Y-33311914D01*
X142976478Y-33311914D02*
X142833621Y-33407152D01*
X142833621Y-33407152D02*
X142738383Y-33550009D01*
X142738383Y-33550009D02*
X142690764Y-33740485D01*
X142690764Y-33740485D02*
X142738383Y-33930961D01*
X142738383Y-33930961D02*
X142833621Y-34073819D01*
X142833621Y-34073819D02*
X142976478Y-34169057D01*
X142976478Y-34169057D02*
X143166954Y-34216676D01*
X143166954Y-34216676D02*
X143357430Y-34169057D01*
X143357430Y-34169057D02*
X143500288Y-34073819D01*
X144166954Y-34073819D02*
X144071716Y-34026200D01*
X144071716Y-34026200D02*
X144024097Y-33930961D01*
X144024097Y-33930961D02*
X144024097Y-33073819D01*
X144547907Y-34073819D02*
X144547907Y-33407152D01*
X144547907Y-33073819D02*
X144500288Y-33121438D01*
X144500288Y-33121438D02*
X144547907Y-33169057D01*
X144547907Y-33169057D02*
X144595526Y-33121438D01*
X144595526Y-33121438D02*
X144547907Y-33073819D01*
X144547907Y-33073819D02*
X144547907Y-33169057D01*
X145452668Y-34073819D02*
X145452668Y-33073819D01*
X145452668Y-34026200D02*
X145357430Y-34073819D01*
X145357430Y-34073819D02*
X145166954Y-34073819D01*
X145166954Y-34073819D02*
X145071716Y-34026200D01*
X145071716Y-34026200D02*
X145024097Y-33978580D01*
X145024097Y-33978580D02*
X144976478Y-33883342D01*
X144976478Y-33883342D02*
X144976478Y-33597628D01*
X144976478Y-33597628D02*
X145024097Y-33502390D01*
X145024097Y-33502390D02*
X145071716Y-33454771D01*
X145071716Y-33454771D02*
X145166954Y-33407152D01*
X145166954Y-33407152D02*
X145357430Y-33407152D01*
X145357430Y-33407152D02*
X145452668Y-33454771D01*
X145928859Y-33978580D02*
X145976478Y-34026200D01*
X145976478Y-34026200D02*
X145928859Y-34073819D01*
X145928859Y-34073819D02*
X145881240Y-34026200D01*
X145881240Y-34026200D02*
X145928859Y-33978580D01*
X145928859Y-33978580D02*
X145928859Y-34073819D01*
X146833620Y-34026200D02*
X146738382Y-34073819D01*
X146738382Y-34073819D02*
X146547906Y-34073819D01*
X146547906Y-34073819D02*
X146452668Y-34026200D01*
X146452668Y-34026200D02*
X146405049Y-33978580D01*
X146405049Y-33978580D02*
X146357430Y-33883342D01*
X146357430Y-33883342D02*
X146357430Y-33597628D01*
X146357430Y-33597628D02*
X146405049Y-33502390D01*
X146405049Y-33502390D02*
X146452668Y-33454771D01*
X146452668Y-33454771D02*
X146547906Y-33407152D01*
X146547906Y-33407152D02*
X146738382Y-33407152D01*
X146738382Y-33407152D02*
X146833620Y-33454771D01*
X147690763Y-34026200D02*
X147595525Y-34073819D01*
X147595525Y-34073819D02*
X147405049Y-34073819D01*
X147405049Y-34073819D02*
X147309811Y-34026200D01*
X147309811Y-34026200D02*
X147262192Y-33978580D01*
X147262192Y-33978580D02*
X147214573Y-33883342D01*
X147214573Y-33883342D02*
X147214573Y-33597628D01*
X147214573Y-33597628D02*
X147262192Y-33502390D01*
X147262192Y-33502390D02*
X147309811Y-33454771D01*
X147309811Y-33454771D02*
X147405049Y-33407152D01*
X147405049Y-33407152D02*
X147595525Y-33407152D01*
X147595525Y-33407152D02*
X147690763Y-33454771D01*
X120857428Y-34779057D02*
X120905047Y-34731438D01*
X120905047Y-34731438D02*
X121000285Y-34683819D01*
X121000285Y-34683819D02*
X121238380Y-34683819D01*
X121238380Y-34683819D02*
X121333618Y-34731438D01*
X121333618Y-34731438D02*
X121381237Y-34779057D01*
X121381237Y-34779057D02*
X121428856Y-34874295D01*
X121428856Y-34874295D02*
X121428856Y-34969533D01*
X121428856Y-34969533D02*
X121381237Y-35112390D01*
X121381237Y-35112390D02*
X120809809Y-35683819D01*
X120809809Y-35683819D02*
X121428856Y-35683819D01*
X122047904Y-34683819D02*
X122143142Y-34683819D01*
X122143142Y-34683819D02*
X122238380Y-34731438D01*
X122238380Y-34731438D02*
X122285999Y-34779057D01*
X122285999Y-34779057D02*
X122333618Y-34874295D01*
X122333618Y-34874295D02*
X122381237Y-35064771D01*
X122381237Y-35064771D02*
X122381237Y-35302866D01*
X122381237Y-35302866D02*
X122333618Y-35493342D01*
X122333618Y-35493342D02*
X122285999Y-35588580D01*
X122285999Y-35588580D02*
X122238380Y-35636200D01*
X122238380Y-35636200D02*
X122143142Y-35683819D01*
X122143142Y-35683819D02*
X122047904Y-35683819D01*
X122047904Y-35683819D02*
X121952666Y-35636200D01*
X121952666Y-35636200D02*
X121905047Y-35588580D01*
X121905047Y-35588580D02*
X121857428Y-35493342D01*
X121857428Y-35493342D02*
X121809809Y-35302866D01*
X121809809Y-35302866D02*
X121809809Y-35064771D01*
X121809809Y-35064771D02*
X121857428Y-34874295D01*
X121857428Y-34874295D02*
X121905047Y-34779057D01*
X121905047Y-34779057D02*
X121952666Y-34731438D01*
X121952666Y-34731438D02*
X122047904Y-34683819D01*
X122762190Y-34779057D02*
X122809809Y-34731438D01*
X122809809Y-34731438D02*
X122905047Y-34683819D01*
X122905047Y-34683819D02*
X123143142Y-34683819D01*
X123143142Y-34683819D02*
X123238380Y-34731438D01*
X123238380Y-34731438D02*
X123285999Y-34779057D01*
X123285999Y-34779057D02*
X123333618Y-34874295D01*
X123333618Y-34874295D02*
X123333618Y-34969533D01*
X123333618Y-34969533D02*
X123285999Y-35112390D01*
X123285999Y-35112390D02*
X122714571Y-35683819D01*
X122714571Y-35683819D02*
X123333618Y-35683819D01*
X124190761Y-35017152D02*
X124190761Y-35683819D01*
X123952666Y-34636200D02*
X123714571Y-35350485D01*
X123714571Y-35350485D02*
X124333618Y-35350485D01*
X124714571Y-35302866D02*
X125476476Y-35302866D01*
X126143142Y-34683819D02*
X126238380Y-34683819D01*
X126238380Y-34683819D02*
X126333618Y-34731438D01*
X126333618Y-34731438D02*
X126381237Y-34779057D01*
X126381237Y-34779057D02*
X126428856Y-34874295D01*
X126428856Y-34874295D02*
X126476475Y-35064771D01*
X126476475Y-35064771D02*
X126476475Y-35302866D01*
X126476475Y-35302866D02*
X126428856Y-35493342D01*
X126428856Y-35493342D02*
X126381237Y-35588580D01*
X126381237Y-35588580D02*
X126333618Y-35636200D01*
X126333618Y-35636200D02*
X126238380Y-35683819D01*
X126238380Y-35683819D02*
X126143142Y-35683819D01*
X126143142Y-35683819D02*
X126047904Y-35636200D01*
X126047904Y-35636200D02*
X126000285Y-35588580D01*
X126000285Y-35588580D02*
X125952666Y-35493342D01*
X125952666Y-35493342D02*
X125905047Y-35302866D01*
X125905047Y-35302866D02*
X125905047Y-35064771D01*
X125905047Y-35064771D02*
X125952666Y-34874295D01*
X125952666Y-34874295D02*
X126000285Y-34779057D01*
X126000285Y-34779057D02*
X126047904Y-34731438D01*
X126047904Y-34731438D02*
X126143142Y-34683819D01*
X127428856Y-35683819D02*
X126857428Y-35683819D01*
X127143142Y-35683819D02*
X127143142Y-34683819D01*
X127143142Y-34683819D02*
X127047904Y-34826676D01*
X127047904Y-34826676D02*
X126952666Y-34921914D01*
X126952666Y-34921914D02*
X126857428Y-34969533D01*
X127857428Y-35302866D02*
X128619333Y-35302866D01*
X129000285Y-34683819D02*
X129619332Y-34683819D01*
X129619332Y-34683819D02*
X129285999Y-35064771D01*
X129285999Y-35064771D02*
X129428856Y-35064771D01*
X129428856Y-35064771D02*
X129524094Y-35112390D01*
X129524094Y-35112390D02*
X129571713Y-35160009D01*
X129571713Y-35160009D02*
X129619332Y-35255247D01*
X129619332Y-35255247D02*
X129619332Y-35493342D01*
X129619332Y-35493342D02*
X129571713Y-35588580D01*
X129571713Y-35588580D02*
X129524094Y-35636200D01*
X129524094Y-35636200D02*
X129428856Y-35683819D01*
X129428856Y-35683819D02*
X129143142Y-35683819D01*
X129143142Y-35683819D02*
X129047904Y-35636200D01*
X129047904Y-35636200D02*
X129000285Y-35588580D01*
X130238380Y-34683819D02*
X130333618Y-34683819D01*
X130333618Y-34683819D02*
X130428856Y-34731438D01*
X130428856Y-34731438D02*
X130476475Y-34779057D01*
X130476475Y-34779057D02*
X130524094Y-34874295D01*
X130524094Y-34874295D02*
X130571713Y-35064771D01*
X130571713Y-35064771D02*
X130571713Y-35302866D01*
X130571713Y-35302866D02*
X130524094Y-35493342D01*
X130524094Y-35493342D02*
X130476475Y-35588580D01*
X130476475Y-35588580D02*
X130428856Y-35636200D01*
X130428856Y-35636200D02*
X130333618Y-35683819D01*
X130333618Y-35683819D02*
X130238380Y-35683819D01*
X130238380Y-35683819D02*
X130143142Y-35636200D01*
X130143142Y-35636200D02*
X130095523Y-35588580D01*
X130095523Y-35588580D02*
X130047904Y-35493342D01*
X130047904Y-35493342D02*
X130000285Y-35302866D01*
X130000285Y-35302866D02*
X130000285Y-35064771D01*
X130000285Y-35064771D02*
X130047904Y-34874295D01*
X130047904Y-34874295D02*
X130095523Y-34779057D01*
X130095523Y-34779057D02*
X130143142Y-34731438D01*
X130143142Y-34731438D02*
X130238380Y-34683819D01*
X131000285Y-35302866D02*
X131762190Y-35302866D01*
X132190761Y-35398104D02*
X132666951Y-35398104D01*
X132095523Y-35683819D02*
X132428856Y-34683819D01*
X132428856Y-34683819D02*
X132762189Y-35683819D01*
X134143142Y-36064771D02*
X134095523Y-36017152D01*
X134095523Y-36017152D02*
X134000285Y-35874295D01*
X134000285Y-35874295D02*
X133952666Y-35779057D01*
X133952666Y-35779057D02*
X133905047Y-35636200D01*
X133905047Y-35636200D02*
X133857428Y-35398104D01*
X133857428Y-35398104D02*
X133857428Y-35207628D01*
X133857428Y-35207628D02*
X133905047Y-34969533D01*
X133905047Y-34969533D02*
X133952666Y-34826676D01*
X133952666Y-34826676D02*
X134000285Y-34731438D01*
X134000285Y-34731438D02*
X134095523Y-34588580D01*
X134095523Y-34588580D02*
X134143142Y-34540961D01*
X134666952Y-35112390D02*
X134571714Y-35064771D01*
X134571714Y-35064771D02*
X134524095Y-35017152D01*
X134524095Y-35017152D02*
X134476476Y-34921914D01*
X134476476Y-34921914D02*
X134476476Y-34874295D01*
X134476476Y-34874295D02*
X134524095Y-34779057D01*
X134524095Y-34779057D02*
X134571714Y-34731438D01*
X134571714Y-34731438D02*
X134666952Y-34683819D01*
X134666952Y-34683819D02*
X134857428Y-34683819D01*
X134857428Y-34683819D02*
X134952666Y-34731438D01*
X134952666Y-34731438D02*
X135000285Y-34779057D01*
X135000285Y-34779057D02*
X135047904Y-34874295D01*
X135047904Y-34874295D02*
X135047904Y-34921914D01*
X135047904Y-34921914D02*
X135000285Y-35017152D01*
X135000285Y-35017152D02*
X134952666Y-35064771D01*
X134952666Y-35064771D02*
X134857428Y-35112390D01*
X134857428Y-35112390D02*
X134666952Y-35112390D01*
X134666952Y-35112390D02*
X134571714Y-35160009D01*
X134571714Y-35160009D02*
X134524095Y-35207628D01*
X134524095Y-35207628D02*
X134476476Y-35302866D01*
X134476476Y-35302866D02*
X134476476Y-35493342D01*
X134476476Y-35493342D02*
X134524095Y-35588580D01*
X134524095Y-35588580D02*
X134571714Y-35636200D01*
X134571714Y-35636200D02*
X134666952Y-35683819D01*
X134666952Y-35683819D02*
X134857428Y-35683819D01*
X134857428Y-35683819D02*
X134952666Y-35636200D01*
X134952666Y-35636200D02*
X135000285Y-35588580D01*
X135000285Y-35588580D02*
X135047904Y-35493342D01*
X135047904Y-35493342D02*
X135047904Y-35302866D01*
X135047904Y-35302866D02*
X135000285Y-35207628D01*
X135000285Y-35207628D02*
X134952666Y-35160009D01*
X134952666Y-35160009D02*
X134857428Y-35112390D01*
X136000285Y-35683819D02*
X135428857Y-35683819D01*
X135714571Y-35683819D02*
X135714571Y-34683819D01*
X135714571Y-34683819D02*
X135619333Y-34826676D01*
X135619333Y-34826676D02*
X135524095Y-34921914D01*
X135524095Y-34921914D02*
X135428857Y-34969533D01*
X136428857Y-34683819D02*
X136428857Y-35493342D01*
X136428857Y-35493342D02*
X136476476Y-35588580D01*
X136476476Y-35588580D02*
X136524095Y-35636200D01*
X136524095Y-35636200D02*
X136619333Y-35683819D01*
X136619333Y-35683819D02*
X136809809Y-35683819D01*
X136809809Y-35683819D02*
X136905047Y-35636200D01*
X136905047Y-35636200D02*
X136952666Y-35588580D01*
X136952666Y-35588580D02*
X137000285Y-35493342D01*
X137000285Y-35493342D02*
X137000285Y-34683819D01*
X137381238Y-36064771D02*
X137428857Y-36017152D01*
X137428857Y-36017152D02*
X137524095Y-35874295D01*
X137524095Y-35874295D02*
X137571714Y-35779057D01*
X137571714Y-35779057D02*
X137619333Y-35636200D01*
X137619333Y-35636200D02*
X137666952Y-35398104D01*
X137666952Y-35398104D02*
X137666952Y-35207628D01*
X137666952Y-35207628D02*
X137619333Y-34969533D01*
X137619333Y-34969533D02*
X137571714Y-34826676D01*
X137571714Y-34826676D02*
X137524095Y-34731438D01*
X137524095Y-34731438D02*
X137428857Y-34588580D01*
X137428857Y-34588580D02*
X137381238Y-34540961D01*
X61938819Y-91487523D02*
X61938819Y-90868476D01*
X61938819Y-90868476D02*
X62319771Y-91201809D01*
X62319771Y-91201809D02*
X62319771Y-91058952D01*
X62319771Y-91058952D02*
X62367390Y-90963714D01*
X62367390Y-90963714D02*
X62415009Y-90916095D01*
X62415009Y-90916095D02*
X62510247Y-90868476D01*
X62510247Y-90868476D02*
X62748342Y-90868476D01*
X62748342Y-90868476D02*
X62843580Y-90916095D01*
X62843580Y-90916095D02*
X62891200Y-90963714D01*
X62891200Y-90963714D02*
X62938819Y-91058952D01*
X62938819Y-91058952D02*
X62938819Y-91344666D01*
X62938819Y-91344666D02*
X62891200Y-91439904D01*
X62891200Y-91439904D02*
X62843580Y-91487523D01*
X62938819Y-90392285D02*
X62938819Y-90201809D01*
X62938819Y-90201809D02*
X62891200Y-90106571D01*
X62891200Y-90106571D02*
X62843580Y-90058952D01*
X62843580Y-90058952D02*
X62700723Y-89963714D01*
X62700723Y-89963714D02*
X62510247Y-89916095D01*
X62510247Y-89916095D02*
X62129295Y-89916095D01*
X62129295Y-89916095D02*
X62034057Y-89963714D01*
X62034057Y-89963714D02*
X61986438Y-90011333D01*
X61986438Y-90011333D02*
X61938819Y-90106571D01*
X61938819Y-90106571D02*
X61938819Y-90297047D01*
X61938819Y-90297047D02*
X61986438Y-90392285D01*
X61986438Y-90392285D02*
X62034057Y-90439904D01*
X62034057Y-90439904D02*
X62129295Y-90487523D01*
X62129295Y-90487523D02*
X62367390Y-90487523D01*
X62367390Y-90487523D02*
X62462628Y-90439904D01*
X62462628Y-90439904D02*
X62510247Y-90392285D01*
X62510247Y-90392285D02*
X62557866Y-90297047D01*
X62557866Y-90297047D02*
X62557866Y-90106571D01*
X62557866Y-90106571D02*
X62510247Y-90011333D01*
X62510247Y-90011333D02*
X62462628Y-89963714D01*
X62462628Y-89963714D02*
X62367390Y-89916095D01*
X62938819Y-42132285D02*
X62938819Y-42703713D01*
X62938819Y-42417999D02*
X61938819Y-42417999D01*
X61938819Y-42417999D02*
X62081676Y-42513237D01*
X62081676Y-42513237D02*
X62176914Y-42608475D01*
X62176914Y-42608475D02*
X62224533Y-42703713D01*
D11*
X139430475Y-40240180D02*
X139382856Y-40287800D01*
X139382856Y-40287800D02*
X139239999Y-40335419D01*
X139239999Y-40335419D02*
X139144761Y-40335419D01*
X139144761Y-40335419D02*
X139001904Y-40287800D01*
X139001904Y-40287800D02*
X138906666Y-40192561D01*
X138906666Y-40192561D02*
X138859047Y-40097323D01*
X138859047Y-40097323D02*
X138811428Y-39906847D01*
X138811428Y-39906847D02*
X138811428Y-39763990D01*
X138811428Y-39763990D02*
X138859047Y-39573514D01*
X138859047Y-39573514D02*
X138906666Y-39478276D01*
X138906666Y-39478276D02*
X139001904Y-39383038D01*
X139001904Y-39383038D02*
X139144761Y-39335419D01*
X139144761Y-39335419D02*
X139239999Y-39335419D01*
X139239999Y-39335419D02*
X139382856Y-39383038D01*
X139382856Y-39383038D02*
X139430475Y-39430657D01*
X139620952Y-40430657D02*
X140382856Y-40430657D01*
X140954285Y-39811609D02*
X140620952Y-39811609D01*
X140620952Y-40335419D02*
X140620952Y-39335419D01*
X140620952Y-39335419D02*
X141097142Y-39335419D01*
X141478095Y-39811609D02*
X141811428Y-39811609D01*
X141954285Y-40335419D02*
X141478095Y-40335419D01*
X141478095Y-40335419D02*
X141478095Y-39335419D01*
X141478095Y-39335419D02*
X141954285Y-39335419D01*
X142382857Y-40335419D02*
X142382857Y-39335419D01*
X142382857Y-39335419D02*
X142716190Y-40049704D01*
X142716190Y-40049704D02*
X143049523Y-39335419D01*
X143049523Y-39335419D02*
X143049523Y-40335419D01*
X143478095Y-40049704D02*
X143954285Y-40049704D01*
X143382857Y-40335419D02*
X143716190Y-39335419D01*
X143716190Y-39335419D02*
X144049523Y-40335419D01*
X144859047Y-40335419D02*
X144382857Y-40335419D01*
X144382857Y-40335419D02*
X144382857Y-39335419D01*
X145192381Y-39811609D02*
X145525714Y-39811609D01*
X145668571Y-40335419D02*
X145192381Y-40335419D01*
X145192381Y-40335419D02*
X145192381Y-39335419D01*
X145192381Y-39335419D02*
X145668571Y-39335419D01*
D10*
X115459047Y-40007580D02*
X115411428Y-40055200D01*
X115411428Y-40055200D02*
X115268571Y-40102819D01*
X115268571Y-40102819D02*
X115173333Y-40102819D01*
X115173333Y-40102819D02*
X115030476Y-40055200D01*
X115030476Y-40055200D02*
X114935238Y-39959961D01*
X114935238Y-39959961D02*
X114887619Y-39864723D01*
X114887619Y-39864723D02*
X114840000Y-39674247D01*
X114840000Y-39674247D02*
X114840000Y-39531390D01*
X114840000Y-39531390D02*
X114887619Y-39340914D01*
X114887619Y-39340914D02*
X114935238Y-39245676D01*
X114935238Y-39245676D02*
X115030476Y-39150438D01*
X115030476Y-39150438D02*
X115173333Y-39102819D01*
X115173333Y-39102819D02*
X115268571Y-39102819D01*
X115268571Y-39102819D02*
X115411428Y-39150438D01*
X115411428Y-39150438D02*
X115459047Y-39198057D01*
X115649524Y-40198057D02*
X116411428Y-40198057D01*
X116649524Y-39579009D02*
X116982857Y-39579009D01*
X117125714Y-40102819D02*
X116649524Y-40102819D01*
X116649524Y-40102819D02*
X116649524Y-39102819D01*
X116649524Y-39102819D02*
X117125714Y-39102819D01*
X117459048Y-39102819D02*
X118125714Y-40102819D01*
X118125714Y-39102819D02*
X117459048Y-40102819D01*
X118363810Y-39102819D02*
X118935238Y-39102819D01*
X118649524Y-40102819D02*
X118649524Y-39102819D01*
D12*
%TO.C,C_FEMALE*%
X138370000Y-41088000D02*
X139700000Y-41088000D01*
X138370000Y-42418000D02*
X138370000Y-41088000D01*
X138370000Y-43688000D02*
X138370000Y-92008000D01*
X138370000Y-43688000D02*
X140970000Y-43688000D01*
X138370000Y-92008000D02*
X146364000Y-92008000D01*
X140970000Y-41088000D02*
X146364000Y-41088000D01*
X140970000Y-43688000D02*
X140970000Y-41088000D01*
X146364000Y-41088000D02*
X146364000Y-92008000D01*
%TO.C,C_EXT*%
X119440000Y-41088000D02*
X119440000Y-42418000D01*
X118110000Y-41088000D02*
X119440000Y-41088000D01*
X116840000Y-43688000D02*
X119440000Y-43688000D01*
X116840000Y-41088000D02*
X116840000Y-43688000D01*
X114240000Y-92008000D02*
X119440000Y-92008000D01*
X114240000Y-41088000D02*
X116840000Y-41088000D01*
X119440000Y-43688000D02*
X119440000Y-92008000D01*
X114240000Y-41088000D02*
X114240000Y-92008000D01*
D10*
%TO.C,GND2*%
X105392000Y-22148000D02*
G75*
G03*
X100820000Y-22148000I-2286000J0D01*
G01*
X100820000Y-22148000D02*
G75*
G03*
X105392000Y-22148000I2286000J0D01*
G01*
%TO.C,GND4*%
X70992000Y-110948000D02*
G75*
G03*
X66420000Y-110948000I-2286000J0D01*
G01*
X66420000Y-110948000D02*
G75*
G03*
X70992000Y-110948000I2286000J0D01*
G01*
%TO.C,GND1*%
X70992000Y-22148000D02*
G75*
G03*
X66420000Y-22148000I-2286000J0D01*
G01*
X66420000Y-22148000D02*
G75*
G03*
X70992000Y-22148000I2286000J0D01*
G01*
%TO.C,GND3*%
X142642000Y-22148000D02*
G75*
G03*
X138070000Y-22148000I-2286000J0D01*
G01*
X138070000Y-22148000D02*
G75*
G03*
X142642000Y-22148000I2286000J0D01*
G01*
%TO.C,GND6*%
X142642000Y-110948000D02*
G75*
G03*
X138070000Y-110948000I-2286000J0D01*
G01*
X138070000Y-110948000D02*
G75*
G03*
X142642000Y-110948000I2286000J0D01*
G01*
%TO.C,GND5*%
X105392000Y-110948000D02*
G75*
G03*
X100820000Y-110948000I-2286000J0D01*
G01*
X100820000Y-110948000D02*
G75*
G03*
X105392000Y-110948000I2286000J0D01*
G01*
%TD*%
D13*
%TO.C,GND2*%
X103106000Y-22148000D03*
%TD*%
%TO.C,GND4*%
X68706000Y-110948000D03*
%TD*%
%TO.C,GND1*%
X68706000Y-22148000D03*
%TD*%
%TO.C,GND3*%
X140356000Y-22148000D03*
%TD*%
%TO.C,GND6*%
X140356000Y-110948000D03*
%TD*%
%TO.C,GND5*%
X103106000Y-110948000D03*
%TD*%
M02*
