%TF.GenerationSoftware,KiCad,Pcbnew,7.0.10-7.0.10~ubuntu22.04.1*%
%TF.CreationDate,2024-01-31T00:34:11-08:00*%
%TF.ProjectId,r11,7231312e-6b69-4636-9164-5f7063625858,rev?*%
%TF.SameCoordinates,Original*%
%TF.FileFunction,Drillmap*%
%TF.FilePolarity,Positive*%
%FSLAX45Y45*%
G04 Gerber Fmt 4.5, Leading zero omitted, Abs format (unit mm)*
G04 Created by KiCad (PCBNEW 7.0.10-7.0.10~ubuntu22.04.1) date 2024-01-31 00:34:11*
%MOMM*%
%LPD*%
G01*
G04 APERTURE LIST*
%ADD10C,0.150000*%
%ADD11C,0.200000*%
G04 APERTURE END LIST*
D10*
X15160600Y-1854800D02*
X14960600Y-1854800D01*
X15310600Y-11304800D02*
X15310600Y-2004800D01*
X14960600Y-11454800D02*
X15160600Y-11454800D01*
X6510600Y-2004800D02*
X6510600Y-2804800D01*
X14960600Y-1854800D02*
X6660600Y-1854800D01*
X6660600Y-11454800D02*
X14960600Y-11454800D01*
X6510600Y-10504800D02*
X6510600Y-11304800D01*
X5680600Y-10354800D02*
X6360600Y-10354800D01*
X5630600Y-9754800D02*
X5630600Y-10304800D01*
X5680600Y-9704800D02*
X6230600Y-9704800D01*
X5680600Y-2954800D02*
X6360600Y-2954800D01*
X5630600Y-3004800D02*
X5630600Y-3554800D01*
X5680600Y-3604800D02*
X6230600Y-3604800D01*
X5630600Y-10304800D02*
G75*
G03*
X5680600Y-10354800I50000J0D01*
G01*
X5680600Y-9704800D02*
G75*
G03*
X5630600Y-9754800I0J-50000D01*
G01*
X6510600Y-10504800D02*
G75*
G03*
X6360600Y-10354800I-150000J0D01*
G01*
X6510600Y-11304800D02*
G75*
G03*
X6660600Y-11454800I150000J0D01*
G01*
X15160600Y-11454800D02*
G75*
G03*
X15310600Y-11304800I0J150000D01*
G01*
X15310600Y-2004800D02*
G75*
G03*
X15160600Y-1854800I-150000J0D01*
G01*
X6660600Y-1854800D02*
G75*
G03*
X6510600Y-2004800I0J-150000D01*
G01*
X6360600Y-2954800D02*
G75*
G03*
X6510600Y-2804800I0J150000D01*
G01*
X5680600Y-2954800D02*
G75*
G03*
X5630600Y-3004800I0J-50000D01*
G01*
X5630600Y-3554800D02*
G75*
G03*
X5680600Y-3604800I50000J0D01*
G01*
X5310600Y-4129800D02*
X5310600Y-4154800D01*
X5435600Y-4004800D02*
X5510600Y-4004800D01*
X5435600Y-4004800D02*
G75*
G03*
X5310600Y-4129800I0J-125000D01*
G01*
X5310600Y-9179800D02*
X5310600Y-9154800D01*
X5435600Y-9304800D02*
X5510600Y-9304800D01*
X5310600Y-9179800D02*
G75*
G03*
X5435600Y-9304800I125000J0D01*
G01*
X6230600Y-9304800D02*
X6230600Y-9704800D01*
X5510600Y-9304800D02*
X6230600Y-9304800D01*
X6230600Y-4004800D02*
X6230600Y-3604800D01*
X5510600Y-4004800D02*
X6230600Y-4004800D01*
X5310600Y-4154800D02*
X5310600Y-9154800D01*
D11*
X5563877Y-11773784D02*
X5563877Y-11573784D01*
X5563877Y-11573784D02*
X5611496Y-11573784D01*
X5611496Y-11573784D02*
X5640067Y-11583308D01*
X5640067Y-11583308D02*
X5659115Y-11602355D01*
X5659115Y-11602355D02*
X5668639Y-11621403D01*
X5668639Y-11621403D02*
X5678162Y-11659498D01*
X5678162Y-11659498D02*
X5678162Y-11688069D01*
X5678162Y-11688069D02*
X5668639Y-11726165D01*
X5668639Y-11726165D02*
X5659115Y-11745212D01*
X5659115Y-11745212D02*
X5640067Y-11764260D01*
X5640067Y-11764260D02*
X5611496Y-11773784D01*
X5611496Y-11773784D02*
X5563877Y-11773784D01*
X5763877Y-11773784D02*
X5763877Y-11640450D01*
X5763877Y-11678546D02*
X5773401Y-11659498D01*
X5773401Y-11659498D02*
X5782924Y-11649974D01*
X5782924Y-11649974D02*
X5801972Y-11640450D01*
X5801972Y-11640450D02*
X5821020Y-11640450D01*
X5887686Y-11773784D02*
X5887686Y-11640450D01*
X5887686Y-11573784D02*
X5878162Y-11583308D01*
X5878162Y-11583308D02*
X5887686Y-11592831D01*
X5887686Y-11592831D02*
X5897210Y-11583308D01*
X5897210Y-11583308D02*
X5887686Y-11573784D01*
X5887686Y-11573784D02*
X5887686Y-11592831D01*
X6011496Y-11773784D02*
X5992448Y-11764260D01*
X5992448Y-11764260D02*
X5982924Y-11745212D01*
X5982924Y-11745212D02*
X5982924Y-11573784D01*
X6116258Y-11773784D02*
X6097210Y-11764260D01*
X6097210Y-11764260D02*
X6087686Y-11745212D01*
X6087686Y-11745212D02*
X6087686Y-11573784D01*
X6344829Y-11773784D02*
X6344829Y-11573784D01*
X6344829Y-11573784D02*
X6411496Y-11716641D01*
X6411496Y-11716641D02*
X6478162Y-11573784D01*
X6478162Y-11573784D02*
X6478162Y-11773784D01*
X6659115Y-11773784D02*
X6659115Y-11669022D01*
X6659115Y-11669022D02*
X6649591Y-11649974D01*
X6649591Y-11649974D02*
X6630543Y-11640450D01*
X6630543Y-11640450D02*
X6592448Y-11640450D01*
X6592448Y-11640450D02*
X6573401Y-11649974D01*
X6659115Y-11764260D02*
X6640067Y-11773784D01*
X6640067Y-11773784D02*
X6592448Y-11773784D01*
X6592448Y-11773784D02*
X6573401Y-11764260D01*
X6573401Y-11764260D02*
X6563877Y-11745212D01*
X6563877Y-11745212D02*
X6563877Y-11726165D01*
X6563877Y-11726165D02*
X6573401Y-11707117D01*
X6573401Y-11707117D02*
X6592448Y-11697593D01*
X6592448Y-11697593D02*
X6640067Y-11697593D01*
X6640067Y-11697593D02*
X6659115Y-11688069D01*
X6754353Y-11640450D02*
X6754353Y-11840450D01*
X6754353Y-11649974D02*
X6773401Y-11640450D01*
X6773401Y-11640450D02*
X6811496Y-11640450D01*
X6811496Y-11640450D02*
X6830543Y-11649974D01*
X6830543Y-11649974D02*
X6840067Y-11659498D01*
X6840067Y-11659498D02*
X6849591Y-11678546D01*
X6849591Y-11678546D02*
X6849591Y-11735688D01*
X6849591Y-11735688D02*
X6840067Y-11754736D01*
X6840067Y-11754736D02*
X6830543Y-11764260D01*
X6830543Y-11764260D02*
X6811496Y-11773784D01*
X6811496Y-11773784D02*
X6773401Y-11773784D01*
X6773401Y-11773784D02*
X6754353Y-11764260D01*
X6935305Y-11754736D02*
X6944829Y-11764260D01*
X6944829Y-11764260D02*
X6935305Y-11773784D01*
X6935305Y-11773784D02*
X6925782Y-11764260D01*
X6925782Y-11764260D02*
X6935305Y-11754736D01*
X6935305Y-11754736D02*
X6935305Y-11773784D01*
X6935305Y-11649974D02*
X6944829Y-11659498D01*
X6944829Y-11659498D02*
X6935305Y-11669022D01*
X6935305Y-11669022D02*
X6925782Y-11659498D01*
X6925782Y-11659498D02*
X6935305Y-11649974D01*
X6935305Y-11649974D02*
X6935305Y-11669022D01*
M02*
