%TF.GenerationSoftware,KiCad,Pcbnew,7.0.10-7.0.10~ubuntu22.04.1*%
%TF.CreationDate,2024-01-31T00:33:20-08:00*%
%TF.ProjectId,r11,7231312e-6b69-4636-9164-5f7063625858,rev?*%
%TF.SameCoordinates,Original*%
%TF.FileFunction,Legend,Bot*%
%TF.FilePolarity,Positive*%
%FSLAX46Y46*%
G04 Gerber Fmt 4.6, Leading zero omitted, Abs format (unit mm)*
G04 Created by KiCad (PCBNEW 7.0.10-7.0.10~ubuntu22.04.1) date 2024-01-31 00:33:20*
%MOMM*%
%LPD*%
G01*
G04 APERTURE LIST*
%ADD10C,0.150000*%
G04 APERTURE END LIST*
D10*
X89955047Y-108226009D02*
X89812190Y-108273628D01*
X89812190Y-108273628D02*
X89764571Y-108321247D01*
X89764571Y-108321247D02*
X89716952Y-108416485D01*
X89716952Y-108416485D02*
X89716952Y-108559342D01*
X89716952Y-108559342D02*
X89764571Y-108654580D01*
X89764571Y-108654580D02*
X89812190Y-108702200D01*
X89812190Y-108702200D02*
X89907428Y-108749819D01*
X89907428Y-108749819D02*
X90288380Y-108749819D01*
X90288380Y-108749819D02*
X90288380Y-107749819D01*
X90288380Y-107749819D02*
X89955047Y-107749819D01*
X89955047Y-107749819D02*
X89859809Y-107797438D01*
X89859809Y-107797438D02*
X89812190Y-107845057D01*
X89812190Y-107845057D02*
X89764571Y-107940295D01*
X89764571Y-107940295D02*
X89764571Y-108035533D01*
X89764571Y-108035533D02*
X89812190Y-108130771D01*
X89812190Y-108130771D02*
X89859809Y-108178390D01*
X89859809Y-108178390D02*
X89955047Y-108226009D01*
X89955047Y-108226009D02*
X90288380Y-108226009D01*
X88907428Y-108702200D02*
X89002666Y-108749819D01*
X89002666Y-108749819D02*
X89193142Y-108749819D01*
X89193142Y-108749819D02*
X89288380Y-108702200D01*
X89288380Y-108702200D02*
X89335999Y-108606961D01*
X89335999Y-108606961D02*
X89335999Y-108226009D01*
X89335999Y-108226009D02*
X89288380Y-108130771D01*
X89288380Y-108130771D02*
X89193142Y-108083152D01*
X89193142Y-108083152D02*
X89002666Y-108083152D01*
X89002666Y-108083152D02*
X88907428Y-108130771D01*
X88907428Y-108130771D02*
X88859809Y-108226009D01*
X88859809Y-108226009D02*
X88859809Y-108321247D01*
X88859809Y-108321247D02*
X89335999Y-108416485D01*
X87669332Y-108083152D02*
X87669332Y-108749819D01*
X87669332Y-108178390D02*
X87621713Y-108130771D01*
X87621713Y-108130771D02*
X87526475Y-108083152D01*
X87526475Y-108083152D02*
X87383618Y-108083152D01*
X87383618Y-108083152D02*
X87288380Y-108130771D01*
X87288380Y-108130771D02*
X87240761Y-108226009D01*
X87240761Y-108226009D02*
X87240761Y-108749819D01*
X86764570Y-108749819D02*
X86764570Y-108083152D01*
X86764570Y-107749819D02*
X86812189Y-107797438D01*
X86812189Y-107797438D02*
X86764570Y-107845057D01*
X86764570Y-107845057D02*
X86716951Y-107797438D01*
X86716951Y-107797438D02*
X86764570Y-107749819D01*
X86764570Y-107749819D02*
X86764570Y-107845057D01*
X85859809Y-108702200D02*
X85955047Y-108749819D01*
X85955047Y-108749819D02*
X86145523Y-108749819D01*
X86145523Y-108749819D02*
X86240761Y-108702200D01*
X86240761Y-108702200D02*
X86288380Y-108654580D01*
X86288380Y-108654580D02*
X86335999Y-108559342D01*
X86335999Y-108559342D02*
X86335999Y-108273628D01*
X86335999Y-108273628D02*
X86288380Y-108178390D01*
X86288380Y-108178390D02*
X86240761Y-108130771D01*
X86240761Y-108130771D02*
X86145523Y-108083152D01*
X86145523Y-108083152D02*
X85955047Y-108083152D01*
X85955047Y-108083152D02*
X85859809Y-108130771D01*
X85050285Y-108702200D02*
X85145523Y-108749819D01*
X85145523Y-108749819D02*
X85335999Y-108749819D01*
X85335999Y-108749819D02*
X85431237Y-108702200D01*
X85431237Y-108702200D02*
X85478856Y-108606961D01*
X85478856Y-108606961D02*
X85478856Y-108226009D01*
X85478856Y-108226009D02*
X85431237Y-108130771D01*
X85431237Y-108130771D02*
X85335999Y-108083152D01*
X85335999Y-108083152D02*
X85145523Y-108083152D01*
X85145523Y-108083152D02*
X85050285Y-108130771D01*
X85050285Y-108130771D02*
X85002666Y-108226009D01*
X85002666Y-108226009D02*
X85002666Y-108321247D01*
X85002666Y-108321247D02*
X85478856Y-108416485D01*
X83955046Y-108083152D02*
X83574094Y-108083152D01*
X83812189Y-107749819D02*
X83812189Y-108606961D01*
X83812189Y-108606961D02*
X83764570Y-108702200D01*
X83764570Y-108702200D02*
X83669332Y-108749819D01*
X83669332Y-108749819D02*
X83574094Y-108749819D01*
X83097903Y-108749819D02*
X83193141Y-108702200D01*
X83193141Y-108702200D02*
X83240760Y-108654580D01*
X83240760Y-108654580D02*
X83288379Y-108559342D01*
X83288379Y-108559342D02*
X83288379Y-108273628D01*
X83288379Y-108273628D02*
X83240760Y-108178390D01*
X83240760Y-108178390D02*
X83193141Y-108130771D01*
X83193141Y-108130771D02*
X83097903Y-108083152D01*
X83097903Y-108083152D02*
X82955046Y-108083152D01*
X82955046Y-108083152D02*
X82859808Y-108130771D01*
X82859808Y-108130771D02*
X82812189Y-108178390D01*
X82812189Y-108178390D02*
X82764570Y-108273628D01*
X82764570Y-108273628D02*
X82764570Y-108559342D01*
X82764570Y-108559342D02*
X82812189Y-108654580D01*
X82812189Y-108654580D02*
X82859808Y-108702200D01*
X82859808Y-108702200D02*
X82955046Y-108749819D01*
X82955046Y-108749819D02*
X83097903Y-108749819D01*
X81574093Y-108749819D02*
X81574093Y-108083152D01*
X81574093Y-108178390D02*
X81526474Y-108130771D01*
X81526474Y-108130771D02*
X81431236Y-108083152D01*
X81431236Y-108083152D02*
X81288379Y-108083152D01*
X81288379Y-108083152D02*
X81193141Y-108130771D01*
X81193141Y-108130771D02*
X81145522Y-108226009D01*
X81145522Y-108226009D02*
X81145522Y-108749819D01*
X81145522Y-108226009D02*
X81097903Y-108130771D01*
X81097903Y-108130771D02*
X81002665Y-108083152D01*
X81002665Y-108083152D02*
X80859808Y-108083152D01*
X80859808Y-108083152D02*
X80764569Y-108130771D01*
X80764569Y-108130771D02*
X80716950Y-108226009D01*
X80716950Y-108226009D02*
X80716950Y-108749819D01*
X79859808Y-108702200D02*
X79955046Y-108749819D01*
X79955046Y-108749819D02*
X80145522Y-108749819D01*
X80145522Y-108749819D02*
X80240760Y-108702200D01*
X80240760Y-108702200D02*
X80288379Y-108606961D01*
X80288379Y-108606961D02*
X80288379Y-108226009D01*
X80288379Y-108226009D02*
X80240760Y-108130771D01*
X80240760Y-108130771D02*
X80145522Y-108083152D01*
X80145522Y-108083152D02*
X79955046Y-108083152D01*
X79955046Y-108083152D02*
X79859808Y-108130771D01*
X79859808Y-108130771D02*
X79812189Y-108226009D01*
X79812189Y-108226009D02*
X79812189Y-108321247D01*
X79812189Y-108321247D02*
X80288379Y-108416485D01*
X79335998Y-108702200D02*
X79335998Y-108749819D01*
X79335998Y-108749819D02*
X79383617Y-108845057D01*
X79383617Y-108845057D02*
X79431236Y-108892676D01*
X91216952Y-110359819D02*
X91216952Y-109359819D01*
X90883619Y-109693152D02*
X90502667Y-109693152D01*
X90740762Y-109359819D02*
X90740762Y-110216961D01*
X90740762Y-110216961D02*
X90693143Y-110312200D01*
X90693143Y-110312200D02*
X90597905Y-110359819D01*
X90597905Y-110359819D02*
X90502667Y-110359819D01*
X90121714Y-109359819D02*
X90216952Y-109550295D01*
X89740762Y-110312200D02*
X89645524Y-110359819D01*
X89645524Y-110359819D02*
X89455048Y-110359819D01*
X89455048Y-110359819D02*
X89359810Y-110312200D01*
X89359810Y-110312200D02*
X89312191Y-110216961D01*
X89312191Y-110216961D02*
X89312191Y-110169342D01*
X89312191Y-110169342D02*
X89359810Y-110074104D01*
X89359810Y-110074104D02*
X89455048Y-110026485D01*
X89455048Y-110026485D02*
X89597905Y-110026485D01*
X89597905Y-110026485D02*
X89693143Y-109978866D01*
X89693143Y-109978866D02*
X89740762Y-109883628D01*
X89740762Y-109883628D02*
X89740762Y-109836009D01*
X89740762Y-109836009D02*
X89693143Y-109740771D01*
X89693143Y-109740771D02*
X89597905Y-109693152D01*
X89597905Y-109693152D02*
X89455048Y-109693152D01*
X89455048Y-109693152D02*
X89359810Y-109740771D01*
X88121714Y-110359819D02*
X88121714Y-109693152D01*
X88121714Y-109788390D02*
X88074095Y-109740771D01*
X88074095Y-109740771D02*
X87978857Y-109693152D01*
X87978857Y-109693152D02*
X87836000Y-109693152D01*
X87836000Y-109693152D02*
X87740762Y-109740771D01*
X87740762Y-109740771D02*
X87693143Y-109836009D01*
X87693143Y-109836009D02*
X87693143Y-110359819D01*
X87693143Y-109836009D02*
X87645524Y-109740771D01*
X87645524Y-109740771D02*
X87550286Y-109693152D01*
X87550286Y-109693152D02*
X87407429Y-109693152D01*
X87407429Y-109693152D02*
X87312190Y-109740771D01*
X87312190Y-109740771D02*
X87264571Y-109836009D01*
X87264571Y-109836009D02*
X87264571Y-110359819D01*
X86883619Y-109693152D02*
X86645524Y-110359819D01*
X86407429Y-109693152D02*
X86645524Y-110359819D01*
X86645524Y-110359819D02*
X86740762Y-110597914D01*
X86740762Y-110597914D02*
X86788381Y-110645533D01*
X86788381Y-110645533D02*
X86883619Y-110693152D01*
X85407428Y-109693152D02*
X85026476Y-109693152D01*
X85264571Y-110359819D02*
X85264571Y-109502676D01*
X85264571Y-109502676D02*
X85216952Y-109407438D01*
X85216952Y-109407438D02*
X85121714Y-109359819D01*
X85121714Y-109359819D02*
X85026476Y-109359819D01*
X84693142Y-110359819D02*
X84693142Y-109693152D01*
X84693142Y-109359819D02*
X84740761Y-109407438D01*
X84740761Y-109407438D02*
X84693142Y-109455057D01*
X84693142Y-109455057D02*
X84645523Y-109407438D01*
X84645523Y-109407438D02*
X84693142Y-109359819D01*
X84693142Y-109359819D02*
X84693142Y-109455057D01*
X84216952Y-110359819D02*
X84216952Y-109693152D01*
X84216952Y-109883628D02*
X84169333Y-109788390D01*
X84169333Y-109788390D02*
X84121714Y-109740771D01*
X84121714Y-109740771D02*
X84026476Y-109693152D01*
X84026476Y-109693152D02*
X83931238Y-109693152D01*
X83645523Y-110312200D02*
X83550285Y-110359819D01*
X83550285Y-110359819D02*
X83359809Y-110359819D01*
X83359809Y-110359819D02*
X83264571Y-110312200D01*
X83264571Y-110312200D02*
X83216952Y-110216961D01*
X83216952Y-110216961D02*
X83216952Y-110169342D01*
X83216952Y-110169342D02*
X83264571Y-110074104D01*
X83264571Y-110074104D02*
X83359809Y-110026485D01*
X83359809Y-110026485D02*
X83502666Y-110026485D01*
X83502666Y-110026485D02*
X83597904Y-109978866D01*
X83597904Y-109978866D02*
X83645523Y-109883628D01*
X83645523Y-109883628D02*
X83645523Y-109836009D01*
X83645523Y-109836009D02*
X83597904Y-109740771D01*
X83597904Y-109740771D02*
X83502666Y-109693152D01*
X83502666Y-109693152D02*
X83359809Y-109693152D01*
X83359809Y-109693152D02*
X83264571Y-109740771D01*
X82931237Y-109693152D02*
X82550285Y-109693152D01*
X82788380Y-109359819D02*
X82788380Y-110216961D01*
X82788380Y-110216961D02*
X82740761Y-110312200D01*
X82740761Y-110312200D02*
X82645523Y-110359819D01*
X82645523Y-110359819D02*
X82550285Y-110359819D01*
X81455046Y-110359819D02*
X81455046Y-109359819D01*
X81455046Y-109359819D02*
X81074094Y-109359819D01*
X81074094Y-109359819D02*
X80978856Y-109407438D01*
X80978856Y-109407438D02*
X80931237Y-109455057D01*
X80931237Y-109455057D02*
X80883618Y-109550295D01*
X80883618Y-109550295D02*
X80883618Y-109693152D01*
X80883618Y-109693152D02*
X80931237Y-109788390D01*
X80931237Y-109788390D02*
X80978856Y-109836009D01*
X80978856Y-109836009D02*
X81074094Y-109883628D01*
X81074094Y-109883628D02*
X81455046Y-109883628D01*
X79883618Y-110264580D02*
X79931237Y-110312200D01*
X79931237Y-110312200D02*
X80074094Y-110359819D01*
X80074094Y-110359819D02*
X80169332Y-110359819D01*
X80169332Y-110359819D02*
X80312189Y-110312200D01*
X80312189Y-110312200D02*
X80407427Y-110216961D01*
X80407427Y-110216961D02*
X80455046Y-110121723D01*
X80455046Y-110121723D02*
X80502665Y-109931247D01*
X80502665Y-109931247D02*
X80502665Y-109788390D01*
X80502665Y-109788390D02*
X80455046Y-109597914D01*
X80455046Y-109597914D02*
X80407427Y-109502676D01*
X80407427Y-109502676D02*
X80312189Y-109407438D01*
X80312189Y-109407438D02*
X80169332Y-109359819D01*
X80169332Y-109359819D02*
X80074094Y-109359819D01*
X80074094Y-109359819D02*
X79931237Y-109407438D01*
X79931237Y-109407438D02*
X79883618Y-109455057D01*
X79121713Y-109836009D02*
X78978856Y-109883628D01*
X78978856Y-109883628D02*
X78931237Y-109931247D01*
X78931237Y-109931247D02*
X78883618Y-110026485D01*
X78883618Y-110026485D02*
X78883618Y-110169342D01*
X78883618Y-110169342D02*
X78931237Y-110264580D01*
X78931237Y-110264580D02*
X78978856Y-110312200D01*
X78978856Y-110312200D02*
X79074094Y-110359819D01*
X79074094Y-110359819D02*
X79455046Y-110359819D01*
X79455046Y-110359819D02*
X79455046Y-109359819D01*
X79455046Y-109359819D02*
X79121713Y-109359819D01*
X79121713Y-109359819D02*
X79026475Y-109407438D01*
X79026475Y-109407438D02*
X78978856Y-109455057D01*
X78978856Y-109455057D02*
X78931237Y-109550295D01*
X78931237Y-109550295D02*
X78931237Y-109645533D01*
X78931237Y-109645533D02*
X78978856Y-109740771D01*
X78978856Y-109740771D02*
X79026475Y-109788390D01*
X79026475Y-109788390D02*
X79121713Y-109836009D01*
X79121713Y-109836009D02*
X79455046Y-109836009D01*
X78455046Y-110264580D02*
X78407427Y-110312200D01*
X78407427Y-110312200D02*
X78455046Y-110359819D01*
X78455046Y-110359819D02*
X78502665Y-110312200D01*
X78502665Y-110312200D02*
X78455046Y-110264580D01*
X78455046Y-110264580D02*
X78455046Y-110359819D01*
X129356476Y-25183819D02*
X129356476Y-24183819D01*
X129023143Y-24517152D02*
X128642191Y-24517152D01*
X128880286Y-25183819D02*
X128880286Y-24326676D01*
X128880286Y-24326676D02*
X128832667Y-24231438D01*
X128832667Y-24231438D02*
X128737429Y-24183819D01*
X128737429Y-24183819D02*
X128642191Y-24183819D01*
X127642190Y-24517152D02*
X127404095Y-25183819D01*
X127166000Y-24517152D02*
X127404095Y-25183819D01*
X127404095Y-25183819D02*
X127499333Y-25421914D01*
X127499333Y-25421914D02*
X127546952Y-25469533D01*
X127546952Y-25469533D02*
X127642190Y-25517152D01*
X126642190Y-25183819D02*
X126737428Y-25136200D01*
X126737428Y-25136200D02*
X126785047Y-25088580D01*
X126785047Y-25088580D02*
X126832666Y-24993342D01*
X126832666Y-24993342D02*
X126832666Y-24707628D01*
X126832666Y-24707628D02*
X126785047Y-24612390D01*
X126785047Y-24612390D02*
X126737428Y-24564771D01*
X126737428Y-24564771D02*
X126642190Y-24517152D01*
X126642190Y-24517152D02*
X126499333Y-24517152D01*
X126499333Y-24517152D02*
X126404095Y-24564771D01*
X126404095Y-24564771D02*
X126356476Y-24612390D01*
X126356476Y-24612390D02*
X126308857Y-24707628D01*
X126308857Y-24707628D02*
X126308857Y-24993342D01*
X126308857Y-24993342D02*
X126356476Y-25088580D01*
X126356476Y-25088580D02*
X126404095Y-25136200D01*
X126404095Y-25136200D02*
X126499333Y-25183819D01*
X126499333Y-25183819D02*
X126642190Y-25183819D01*
X125451714Y-24517152D02*
X125451714Y-25183819D01*
X125880285Y-24517152D02*
X125880285Y-25040961D01*
X125880285Y-25040961D02*
X125832666Y-25136200D01*
X125832666Y-25136200D02*
X125737428Y-25183819D01*
X125737428Y-25183819D02*
X125594571Y-25183819D01*
X125594571Y-25183819D02*
X125499333Y-25136200D01*
X125499333Y-25136200D02*
X125451714Y-25088580D01*
X123785047Y-25136200D02*
X123880285Y-25183819D01*
X123880285Y-25183819D02*
X124070761Y-25183819D01*
X124070761Y-25183819D02*
X124165999Y-25136200D01*
X124165999Y-25136200D02*
X124213618Y-25088580D01*
X124213618Y-25088580D02*
X124261237Y-24993342D01*
X124261237Y-24993342D02*
X124261237Y-24707628D01*
X124261237Y-24707628D02*
X124213618Y-24612390D01*
X124213618Y-24612390D02*
X124165999Y-24564771D01*
X124165999Y-24564771D02*
X124070761Y-24517152D01*
X124070761Y-24517152D02*
X123880285Y-24517152D01*
X123880285Y-24517152D02*
X123785047Y-24564771D01*
X122927904Y-25183819D02*
X122927904Y-24660009D01*
X122927904Y-24660009D02*
X122975523Y-24564771D01*
X122975523Y-24564771D02*
X123070761Y-24517152D01*
X123070761Y-24517152D02*
X123261237Y-24517152D01*
X123261237Y-24517152D02*
X123356475Y-24564771D01*
X122927904Y-25136200D02*
X123023142Y-25183819D01*
X123023142Y-25183819D02*
X123261237Y-25183819D01*
X123261237Y-25183819D02*
X123356475Y-25136200D01*
X123356475Y-25136200D02*
X123404094Y-25040961D01*
X123404094Y-25040961D02*
X123404094Y-24945723D01*
X123404094Y-24945723D02*
X123356475Y-24850485D01*
X123356475Y-24850485D02*
X123261237Y-24802866D01*
X123261237Y-24802866D02*
X123023142Y-24802866D01*
X123023142Y-24802866D02*
X122927904Y-24755247D01*
X122451713Y-24517152D02*
X122451713Y-25183819D01*
X122451713Y-24612390D02*
X122404094Y-24564771D01*
X122404094Y-24564771D02*
X122308856Y-24517152D01*
X122308856Y-24517152D02*
X122165999Y-24517152D01*
X122165999Y-24517152D02*
X122070761Y-24564771D01*
X122070761Y-24564771D02*
X122023142Y-24660009D01*
X122023142Y-24660009D02*
X122023142Y-25183819D01*
X120785046Y-25183819D02*
X120785046Y-24517152D01*
X120785046Y-24707628D02*
X120737427Y-24612390D01*
X120737427Y-24612390D02*
X120689808Y-24564771D01*
X120689808Y-24564771D02*
X120594570Y-24517152D01*
X120594570Y-24517152D02*
X120499332Y-24517152D01*
X119785046Y-25136200D02*
X119880284Y-25183819D01*
X119880284Y-25183819D02*
X120070760Y-25183819D01*
X120070760Y-25183819D02*
X120165998Y-25136200D01*
X120165998Y-25136200D02*
X120213617Y-25040961D01*
X120213617Y-25040961D02*
X120213617Y-24660009D01*
X120213617Y-24660009D02*
X120165998Y-24564771D01*
X120165998Y-24564771D02*
X120070760Y-24517152D01*
X120070760Y-24517152D02*
X119880284Y-24517152D01*
X119880284Y-24517152D02*
X119785046Y-24564771D01*
X119785046Y-24564771D02*
X119737427Y-24660009D01*
X119737427Y-24660009D02*
X119737427Y-24755247D01*
X119737427Y-24755247D02*
X120213617Y-24850485D01*
X118880284Y-25183819D02*
X118880284Y-24660009D01*
X118880284Y-24660009D02*
X118927903Y-24564771D01*
X118927903Y-24564771D02*
X119023141Y-24517152D01*
X119023141Y-24517152D02*
X119213617Y-24517152D01*
X119213617Y-24517152D02*
X119308855Y-24564771D01*
X118880284Y-25136200D02*
X118975522Y-25183819D01*
X118975522Y-25183819D02*
X119213617Y-25183819D01*
X119213617Y-25183819D02*
X119308855Y-25136200D01*
X119308855Y-25136200D02*
X119356474Y-25040961D01*
X119356474Y-25040961D02*
X119356474Y-24945723D01*
X119356474Y-24945723D02*
X119308855Y-24850485D01*
X119308855Y-24850485D02*
X119213617Y-24802866D01*
X119213617Y-24802866D02*
X118975522Y-24802866D01*
X118975522Y-24802866D02*
X118880284Y-24755247D01*
X117975522Y-25183819D02*
X117975522Y-24183819D01*
X117975522Y-25136200D02*
X118070760Y-25183819D01*
X118070760Y-25183819D02*
X118261236Y-25183819D01*
X118261236Y-25183819D02*
X118356474Y-25136200D01*
X118356474Y-25136200D02*
X118404093Y-25088580D01*
X118404093Y-25088580D02*
X118451712Y-24993342D01*
X118451712Y-24993342D02*
X118451712Y-24707628D01*
X118451712Y-24707628D02*
X118404093Y-24612390D01*
X118404093Y-24612390D02*
X118356474Y-24564771D01*
X118356474Y-24564771D02*
X118261236Y-24517152D01*
X118261236Y-24517152D02*
X118070760Y-24517152D01*
X118070760Y-24517152D02*
X117975522Y-24564771D01*
X116880283Y-24517152D02*
X116499331Y-24517152D01*
X116737426Y-24183819D02*
X116737426Y-25040961D01*
X116737426Y-25040961D02*
X116689807Y-25136200D01*
X116689807Y-25136200D02*
X116594569Y-25183819D01*
X116594569Y-25183819D02*
X116499331Y-25183819D01*
X116165997Y-25183819D02*
X116165997Y-24183819D01*
X115737426Y-25183819D02*
X115737426Y-24660009D01*
X115737426Y-24660009D02*
X115785045Y-24564771D01*
X115785045Y-24564771D02*
X115880283Y-24517152D01*
X115880283Y-24517152D02*
X116023140Y-24517152D01*
X116023140Y-24517152D02*
X116118378Y-24564771D01*
X116118378Y-24564771D02*
X116165997Y-24612390D01*
X115261235Y-25183819D02*
X115261235Y-24517152D01*
X115261235Y-24183819D02*
X115308854Y-24231438D01*
X115308854Y-24231438D02*
X115261235Y-24279057D01*
X115261235Y-24279057D02*
X115213616Y-24231438D01*
X115213616Y-24231438D02*
X115261235Y-24183819D01*
X115261235Y-24183819D02*
X115261235Y-24279057D01*
X114832664Y-25136200D02*
X114737426Y-25183819D01*
X114737426Y-25183819D02*
X114546950Y-25183819D01*
X114546950Y-25183819D02*
X114451712Y-25136200D01*
X114451712Y-25136200D02*
X114404093Y-25040961D01*
X114404093Y-25040961D02*
X114404093Y-24993342D01*
X114404093Y-24993342D02*
X114451712Y-24898104D01*
X114451712Y-24898104D02*
X114546950Y-24850485D01*
X114546950Y-24850485D02*
X114689807Y-24850485D01*
X114689807Y-24850485D02*
X114785045Y-24802866D01*
X114785045Y-24802866D02*
X114832664Y-24707628D01*
X114832664Y-24707628D02*
X114832664Y-24660009D01*
X114832664Y-24660009D02*
X114785045Y-24564771D01*
X114785045Y-24564771D02*
X114689807Y-24517152D01*
X114689807Y-24517152D02*
X114546950Y-24517152D01*
X114546950Y-24517152D02*
X114451712Y-24564771D01*
X113927902Y-25136200D02*
X113927902Y-25183819D01*
X113927902Y-25183819D02*
X113975521Y-25279057D01*
X113975521Y-25279057D02*
X114023140Y-25326676D01*
X134332667Y-26127152D02*
X134094572Y-26793819D01*
X133856477Y-26127152D02*
X134094572Y-26793819D01*
X134094572Y-26793819D02*
X134189810Y-27031914D01*
X134189810Y-27031914D02*
X134237429Y-27079533D01*
X134237429Y-27079533D02*
X134332667Y-27127152D01*
X133332667Y-26793819D02*
X133427905Y-26746200D01*
X133427905Y-26746200D02*
X133475524Y-26698580D01*
X133475524Y-26698580D02*
X133523143Y-26603342D01*
X133523143Y-26603342D02*
X133523143Y-26317628D01*
X133523143Y-26317628D02*
X133475524Y-26222390D01*
X133475524Y-26222390D02*
X133427905Y-26174771D01*
X133427905Y-26174771D02*
X133332667Y-26127152D01*
X133332667Y-26127152D02*
X133189810Y-26127152D01*
X133189810Y-26127152D02*
X133094572Y-26174771D01*
X133094572Y-26174771D02*
X133046953Y-26222390D01*
X133046953Y-26222390D02*
X132999334Y-26317628D01*
X132999334Y-26317628D02*
X132999334Y-26603342D01*
X132999334Y-26603342D02*
X133046953Y-26698580D01*
X133046953Y-26698580D02*
X133094572Y-26746200D01*
X133094572Y-26746200D02*
X133189810Y-26793819D01*
X133189810Y-26793819D02*
X133332667Y-26793819D01*
X132142191Y-26127152D02*
X132142191Y-26793819D01*
X132570762Y-26127152D02*
X132570762Y-26650961D01*
X132570762Y-26650961D02*
X132523143Y-26746200D01*
X132523143Y-26746200D02*
X132427905Y-26793819D01*
X132427905Y-26793819D02*
X132285048Y-26793819D01*
X132285048Y-26793819D02*
X132189810Y-26746200D01*
X132189810Y-26746200D02*
X132142191Y-26698580D01*
X130904095Y-26127152D02*
X130904095Y-27127152D01*
X130904095Y-26174771D02*
X130808857Y-26127152D01*
X130808857Y-26127152D02*
X130618381Y-26127152D01*
X130618381Y-26127152D02*
X130523143Y-26174771D01*
X130523143Y-26174771D02*
X130475524Y-26222390D01*
X130475524Y-26222390D02*
X130427905Y-26317628D01*
X130427905Y-26317628D02*
X130427905Y-26603342D01*
X130427905Y-26603342D02*
X130475524Y-26698580D01*
X130475524Y-26698580D02*
X130523143Y-26746200D01*
X130523143Y-26746200D02*
X130618381Y-26793819D01*
X130618381Y-26793819D02*
X130808857Y-26793819D01*
X130808857Y-26793819D02*
X130904095Y-26746200D01*
X129570762Y-26127152D02*
X129570762Y-26793819D01*
X129999333Y-26127152D02*
X129999333Y-26650961D01*
X129999333Y-26650961D02*
X129951714Y-26746200D01*
X129951714Y-26746200D02*
X129856476Y-26793819D01*
X129856476Y-26793819D02*
X129713619Y-26793819D01*
X129713619Y-26793819D02*
X129618381Y-26746200D01*
X129618381Y-26746200D02*
X129570762Y-26698580D01*
X129237428Y-26127152D02*
X128856476Y-26127152D01*
X129094571Y-25793819D02*
X129094571Y-26650961D01*
X129094571Y-26650961D02*
X129046952Y-26746200D01*
X129046952Y-26746200D02*
X128951714Y-26793819D01*
X128951714Y-26793819D02*
X128856476Y-26793819D01*
X127904094Y-26127152D02*
X127523142Y-26127152D01*
X127761237Y-25793819D02*
X127761237Y-26650961D01*
X127761237Y-26650961D02*
X127713618Y-26746200D01*
X127713618Y-26746200D02*
X127618380Y-26793819D01*
X127618380Y-26793819D02*
X127523142Y-26793819D01*
X127189808Y-26793819D02*
X127189808Y-25793819D01*
X126761237Y-26793819D02*
X126761237Y-26270009D01*
X126761237Y-26270009D02*
X126808856Y-26174771D01*
X126808856Y-26174771D02*
X126904094Y-26127152D01*
X126904094Y-26127152D02*
X127046951Y-26127152D01*
X127046951Y-26127152D02*
X127142189Y-26174771D01*
X127142189Y-26174771D02*
X127189808Y-26222390D01*
X125904094Y-26746200D02*
X125999332Y-26793819D01*
X125999332Y-26793819D02*
X126189808Y-26793819D01*
X126189808Y-26793819D02*
X126285046Y-26746200D01*
X126285046Y-26746200D02*
X126332665Y-26650961D01*
X126332665Y-26650961D02*
X126332665Y-26270009D01*
X126332665Y-26270009D02*
X126285046Y-26174771D01*
X126285046Y-26174771D02*
X126189808Y-26127152D01*
X126189808Y-26127152D02*
X125999332Y-26127152D01*
X125999332Y-26127152D02*
X125904094Y-26174771D01*
X125904094Y-26174771D02*
X125856475Y-26270009D01*
X125856475Y-26270009D02*
X125856475Y-26365247D01*
X125856475Y-26365247D02*
X126332665Y-26460485D01*
X124237427Y-26746200D02*
X124332665Y-26793819D01*
X124332665Y-26793819D02*
X124523141Y-26793819D01*
X124523141Y-26793819D02*
X124618379Y-26746200D01*
X124618379Y-26746200D02*
X124665998Y-26698580D01*
X124665998Y-26698580D02*
X124713617Y-26603342D01*
X124713617Y-26603342D02*
X124713617Y-26317628D01*
X124713617Y-26317628D02*
X124665998Y-26222390D01*
X124665998Y-26222390D02*
X124618379Y-26174771D01*
X124618379Y-26174771D02*
X124523141Y-26127152D01*
X124523141Y-26127152D02*
X124332665Y-26127152D01*
X124332665Y-26127152D02*
X124237427Y-26174771D01*
X123380284Y-26793819D02*
X123380284Y-26270009D01*
X123380284Y-26270009D02*
X123427903Y-26174771D01*
X123427903Y-26174771D02*
X123523141Y-26127152D01*
X123523141Y-26127152D02*
X123713617Y-26127152D01*
X123713617Y-26127152D02*
X123808855Y-26174771D01*
X123380284Y-26746200D02*
X123475522Y-26793819D01*
X123475522Y-26793819D02*
X123713617Y-26793819D01*
X123713617Y-26793819D02*
X123808855Y-26746200D01*
X123808855Y-26746200D02*
X123856474Y-26650961D01*
X123856474Y-26650961D02*
X123856474Y-26555723D01*
X123856474Y-26555723D02*
X123808855Y-26460485D01*
X123808855Y-26460485D02*
X123713617Y-26412866D01*
X123713617Y-26412866D02*
X123475522Y-26412866D01*
X123475522Y-26412866D02*
X123380284Y-26365247D01*
X122904093Y-26793819D02*
X122904093Y-26127152D01*
X122904093Y-26317628D02*
X122856474Y-26222390D01*
X122856474Y-26222390D02*
X122808855Y-26174771D01*
X122808855Y-26174771D02*
X122713617Y-26127152D01*
X122713617Y-26127152D02*
X122618379Y-26127152D01*
X121856474Y-26793819D02*
X121856474Y-25793819D01*
X121856474Y-26746200D02*
X121951712Y-26793819D01*
X121951712Y-26793819D02*
X122142188Y-26793819D01*
X122142188Y-26793819D02*
X122237426Y-26746200D01*
X122237426Y-26746200D02*
X122285045Y-26698580D01*
X122285045Y-26698580D02*
X122332664Y-26603342D01*
X122332664Y-26603342D02*
X122332664Y-26317628D01*
X122332664Y-26317628D02*
X122285045Y-26222390D01*
X122285045Y-26222390D02*
X122237426Y-26174771D01*
X122237426Y-26174771D02*
X122142188Y-26127152D01*
X122142188Y-26127152D02*
X121951712Y-26127152D01*
X121951712Y-26127152D02*
X121856474Y-26174771D01*
X120618378Y-26793819D02*
X120618378Y-26127152D01*
X120618378Y-25793819D02*
X120665997Y-25841438D01*
X120665997Y-25841438D02*
X120618378Y-25889057D01*
X120618378Y-25889057D02*
X120570759Y-25841438D01*
X120570759Y-25841438D02*
X120618378Y-25793819D01*
X120618378Y-25793819D02*
X120618378Y-25889057D01*
X120142188Y-26127152D02*
X120142188Y-26793819D01*
X120142188Y-26222390D02*
X120094569Y-26174771D01*
X120094569Y-26174771D02*
X119999331Y-26127152D01*
X119999331Y-26127152D02*
X119856474Y-26127152D01*
X119856474Y-26127152D02*
X119761236Y-26174771D01*
X119761236Y-26174771D02*
X119713617Y-26270009D01*
X119713617Y-26270009D02*
X119713617Y-26793819D01*
X118046950Y-26127152D02*
X118046950Y-26793819D01*
X118475521Y-26127152D02*
X118475521Y-26650961D01*
X118475521Y-26650961D02*
X118427902Y-26746200D01*
X118427902Y-26746200D02*
X118332664Y-26793819D01*
X118332664Y-26793819D02*
X118189807Y-26793819D01*
X118189807Y-26793819D02*
X118094569Y-26746200D01*
X118094569Y-26746200D02*
X118046950Y-26698580D01*
X117570759Y-26127152D02*
X117570759Y-27127152D01*
X117570759Y-26174771D02*
X117475521Y-26127152D01*
X117475521Y-26127152D02*
X117285045Y-26127152D01*
X117285045Y-26127152D02*
X117189807Y-26174771D01*
X117189807Y-26174771D02*
X117142188Y-26222390D01*
X117142188Y-26222390D02*
X117094569Y-26317628D01*
X117094569Y-26317628D02*
X117094569Y-26603342D01*
X117094569Y-26603342D02*
X117142188Y-26698580D01*
X117142188Y-26698580D02*
X117189807Y-26746200D01*
X117189807Y-26746200D02*
X117285045Y-26793819D01*
X117285045Y-26793819D02*
X117475521Y-26793819D01*
X117475521Y-26793819D02*
X117570759Y-26746200D01*
X116713616Y-26746200D02*
X116618378Y-26793819D01*
X116618378Y-26793819D02*
X116427902Y-26793819D01*
X116427902Y-26793819D02*
X116332664Y-26746200D01*
X116332664Y-26746200D02*
X116285045Y-26650961D01*
X116285045Y-26650961D02*
X116285045Y-26603342D01*
X116285045Y-26603342D02*
X116332664Y-26508104D01*
X116332664Y-26508104D02*
X116427902Y-26460485D01*
X116427902Y-26460485D02*
X116570759Y-26460485D01*
X116570759Y-26460485D02*
X116665997Y-26412866D01*
X116665997Y-26412866D02*
X116713616Y-26317628D01*
X116713616Y-26317628D02*
X116713616Y-26270009D01*
X116713616Y-26270009D02*
X116665997Y-26174771D01*
X116665997Y-26174771D02*
X116570759Y-26127152D01*
X116570759Y-26127152D02*
X116427902Y-26127152D01*
X116427902Y-26127152D02*
X116332664Y-26174771D01*
X115856473Y-26793819D02*
X115856473Y-26127152D01*
X115856473Y-25793819D02*
X115904092Y-25841438D01*
X115904092Y-25841438D02*
X115856473Y-25889057D01*
X115856473Y-25889057D02*
X115808854Y-25841438D01*
X115808854Y-25841438D02*
X115856473Y-25793819D01*
X115856473Y-25793819D02*
X115856473Y-25889057D01*
X114951712Y-26793819D02*
X114951712Y-25793819D01*
X114951712Y-26746200D02*
X115046950Y-26793819D01*
X115046950Y-26793819D02*
X115237426Y-26793819D01*
X115237426Y-26793819D02*
X115332664Y-26746200D01*
X115332664Y-26746200D02*
X115380283Y-26698580D01*
X115380283Y-26698580D02*
X115427902Y-26603342D01*
X115427902Y-26603342D02*
X115427902Y-26317628D01*
X115427902Y-26317628D02*
X115380283Y-26222390D01*
X115380283Y-26222390D02*
X115332664Y-26174771D01*
X115332664Y-26174771D02*
X115237426Y-26127152D01*
X115237426Y-26127152D02*
X115046950Y-26127152D01*
X115046950Y-26127152D02*
X114951712Y-26174771D01*
X114094569Y-26746200D02*
X114189807Y-26793819D01*
X114189807Y-26793819D02*
X114380283Y-26793819D01*
X114380283Y-26793819D02*
X114475521Y-26746200D01*
X114475521Y-26746200D02*
X114523140Y-26650961D01*
X114523140Y-26650961D02*
X114523140Y-26270009D01*
X114523140Y-26270009D02*
X114475521Y-26174771D01*
X114475521Y-26174771D02*
X114380283Y-26127152D01*
X114380283Y-26127152D02*
X114189807Y-26127152D01*
X114189807Y-26127152D02*
X114094569Y-26174771D01*
X114094569Y-26174771D02*
X114046950Y-26270009D01*
X114046950Y-26270009D02*
X114046950Y-26365247D01*
X114046950Y-26365247D02*
X114523140Y-26460485D01*
X112427902Y-26793819D02*
X112427902Y-25793819D01*
X112427902Y-26746200D02*
X112523140Y-26793819D01*
X112523140Y-26793819D02*
X112713616Y-26793819D01*
X112713616Y-26793819D02*
X112808854Y-26746200D01*
X112808854Y-26746200D02*
X112856473Y-26698580D01*
X112856473Y-26698580D02*
X112904092Y-26603342D01*
X112904092Y-26603342D02*
X112904092Y-26317628D01*
X112904092Y-26317628D02*
X112856473Y-26222390D01*
X112856473Y-26222390D02*
X112808854Y-26174771D01*
X112808854Y-26174771D02*
X112713616Y-26127152D01*
X112713616Y-26127152D02*
X112523140Y-26127152D01*
X112523140Y-26127152D02*
X112427902Y-26174771D01*
X111808854Y-26793819D02*
X111904092Y-26746200D01*
X111904092Y-26746200D02*
X111951711Y-26698580D01*
X111951711Y-26698580D02*
X111999330Y-26603342D01*
X111999330Y-26603342D02*
X111999330Y-26317628D01*
X111999330Y-26317628D02*
X111951711Y-26222390D01*
X111951711Y-26222390D02*
X111904092Y-26174771D01*
X111904092Y-26174771D02*
X111808854Y-26127152D01*
X111808854Y-26127152D02*
X111665997Y-26127152D01*
X111665997Y-26127152D02*
X111570759Y-26174771D01*
X111570759Y-26174771D02*
X111523140Y-26222390D01*
X111523140Y-26222390D02*
X111475521Y-26317628D01*
X111475521Y-26317628D02*
X111475521Y-26603342D01*
X111475521Y-26603342D02*
X111523140Y-26698580D01*
X111523140Y-26698580D02*
X111570759Y-26746200D01*
X111570759Y-26746200D02*
X111665997Y-26793819D01*
X111665997Y-26793819D02*
X111808854Y-26793819D01*
X111142187Y-26127152D02*
X110951711Y-26793819D01*
X110951711Y-26793819D02*
X110761235Y-26317628D01*
X110761235Y-26317628D02*
X110570759Y-26793819D01*
X110570759Y-26793819D02*
X110380283Y-26127152D01*
X109999330Y-26127152D02*
X109999330Y-26793819D01*
X109999330Y-26222390D02*
X109951711Y-26174771D01*
X109951711Y-26174771D02*
X109856473Y-26127152D01*
X109856473Y-26127152D02*
X109713616Y-26127152D01*
X109713616Y-26127152D02*
X109618378Y-26174771D01*
X109618378Y-26174771D02*
X109570759Y-26270009D01*
X109570759Y-26270009D02*
X109570759Y-26793819D01*
X109094568Y-26698580D02*
X109046949Y-26746200D01*
X109046949Y-26746200D02*
X109094568Y-26793819D01*
X109094568Y-26793819D02*
X109142187Y-26746200D01*
X109142187Y-26746200D02*
X109094568Y-26698580D01*
X109094568Y-26698580D02*
X109094568Y-26793819D01*
X62034057Y-42132286D02*
X61986438Y-42179905D01*
X61986438Y-42179905D02*
X61938819Y-42275143D01*
X61938819Y-42275143D02*
X61938819Y-42513238D01*
X61938819Y-42513238D02*
X61986438Y-42608476D01*
X61986438Y-42608476D02*
X62034057Y-42656095D01*
X62034057Y-42656095D02*
X62129295Y-42703714D01*
X62129295Y-42703714D02*
X62224533Y-42703714D01*
X62224533Y-42703714D02*
X62367390Y-42656095D01*
X62367390Y-42656095D02*
X62938819Y-42084667D01*
X62938819Y-42084667D02*
X62938819Y-42703714D01*
X62272152Y-90392285D02*
X62938819Y-90392285D01*
X61891200Y-90154190D02*
X62605485Y-89916095D01*
X62605485Y-89916095D02*
X62605485Y-90535142D01*
X61938819Y-91106571D02*
X61938819Y-91201809D01*
X61938819Y-91201809D02*
X61986438Y-91297047D01*
X61986438Y-91297047D02*
X62034057Y-91344666D01*
X62034057Y-91344666D02*
X62129295Y-91392285D01*
X62129295Y-91392285D02*
X62319771Y-91439904D01*
X62319771Y-91439904D02*
X62557866Y-91439904D01*
X62557866Y-91439904D02*
X62748342Y-91392285D01*
X62748342Y-91392285D02*
X62843580Y-91344666D01*
X62843580Y-91344666D02*
X62891200Y-91297047D01*
X62891200Y-91297047D02*
X62938819Y-91201809D01*
X62938819Y-91201809D02*
X62938819Y-91106571D01*
X62938819Y-91106571D02*
X62891200Y-91011333D01*
X62891200Y-91011333D02*
X62843580Y-90963714D01*
X62843580Y-90963714D02*
X62748342Y-90916095D01*
X62748342Y-90916095D02*
X62557866Y-90868476D01*
X62557866Y-90868476D02*
X62319771Y-90868476D01*
X62319771Y-90868476D02*
X62129295Y-90916095D01*
X62129295Y-90916095D02*
X62034057Y-90963714D01*
X62034057Y-90963714D02*
X61986438Y-91011333D01*
X61986438Y-91011333D02*
X61938819Y-91106571D01*
M02*
