M48
; DRILL file {KiCad 7.0.10-7.0.10~ubuntu22.04.1} date Wed 31 Jan 2024 12:34:03 AM PST
; FORMAT={-:-/ absolute / inch / decimal}
; #@! TF.CreationDate,2024-01-31T00:34:03-08:00
; #@! TF.GenerationSoftware,Kicad,Pcbnew,7.0.10-7.0.10~ubuntu22.04.1
; #@! TF.FileFunction,Plated,1,2,PTH
FMAT,2
INCH
; #@! TA.AperFunction,Plated,PTH,ViaDrill
T1C0.0197
; #@! TA.AperFunction,Plated,PTH,ComponentDrill
T2C0.0394
; #@! TA.AperFunction,Plated,PTH,ComponentDrill
T3C0.1260
%
G90
G05
T1
X2.361Y-3.12
X2.3798Y-2.9153
X2.3841Y-3.529
X2.3899Y-2.1654
X2.3899Y-2.7715
X2.3899Y-2.67
X2.3906Y-1.77
X2.3906Y-2.37
X2.3912Y-2.445
X2.3914Y-3.3776
X2.3957Y-2.2986
X2.3962Y-3.4866
X2.3963Y-2.5789
X2.3968Y-1.9975
X2.43Y-3.25
X2.4686Y-2.9459
X2.47Y-1.8625
X2.54Y-2.07
X4.3981Y-2.9852
X4.428Y-2.4756
X4.4315Y-1.8192
X4.4386Y-2.2341
X4.4386Y-3.2966
X4.515Y-3.4179
X4.6025Y-3.1328
X4.7507Y-3.2893
T2
X4.55Y-1.67
X4.55Y-1.77
X4.55Y-1.87
X4.55Y-1.97
X4.55Y-2.07
X4.55Y-2.17
X4.55Y-2.27
X4.55Y-2.37
X4.55Y-2.47
X4.55Y-2.57
X4.55Y-2.67
X4.55Y-2.77
X4.55Y-2.87
X4.55Y-2.97
X4.55Y-3.07
X4.55Y-3.17
X4.55Y-3.27
X4.55Y-3.37
X4.55Y-3.47
X4.55Y-3.57
X4.65Y-1.67
X4.65Y-1.77
X4.65Y-1.87
X4.65Y-1.97
X4.65Y-2.07
X4.65Y-2.17
X4.65Y-2.27
X4.65Y-2.37
X4.65Y-2.47
X4.65Y-2.57
X4.65Y-2.67
X4.65Y-2.77
X4.65Y-2.87
X4.65Y-2.97
X4.65Y-3.07
X4.65Y-3.17
X4.65Y-3.27
X4.65Y-3.37
X4.65Y-3.47
X4.65Y-3.57
X5.5Y-1.67
X5.5Y-1.77
X5.5Y-1.87
X5.5Y-1.97
X5.5Y-2.07
X5.5Y-2.17
X5.5Y-2.27
X5.5Y-2.37
X5.5Y-2.47
X5.5Y-2.57
X5.5Y-2.67
X5.5Y-2.77
X5.5Y-2.87
X5.5Y-2.97
X5.5Y-3.07
X5.5Y-3.17
X5.5Y-3.27
X5.5Y-3.37
X5.5Y-3.47
X5.5Y-3.57
X5.7Y-1.67
X5.7Y-1.77
X5.7Y-1.87
X5.7Y-1.97
X5.7Y-2.07
X5.7Y-2.17
X5.7Y-2.27
X5.7Y-2.37
X5.7Y-2.47
X5.7Y-2.57
X5.7Y-2.67
X5.7Y-2.77
X5.7Y-2.87
X5.7Y-2.97
X5.7Y-3.07
X5.7Y-3.17
X5.7Y-3.27
X5.7Y-3.37
X5.7Y-3.47
X5.7Y-3.57
T3
X2.705Y-0.872
X2.705Y-4.368
X4.0593Y-0.872
X4.0593Y-4.368
X5.5258Y-0.872
X5.5258Y-4.368
M30
