%TF.GenerationSoftware,KiCad,Pcbnew,7.0.10-7.0.10~ubuntu22.04.1*%
%TF.CreationDate,2024-01-31T00:33:20-08:00*%
%TF.ProjectId,r11,7231312e-6b69-4636-9164-5f7063625858,rev?*%
%TF.SameCoordinates,Original*%
%TF.FileFunction,Soldermask,Top*%
%TF.FilePolarity,Negative*%
%FSLAX46Y46*%
G04 Gerber Fmt 4.6, Leading zero omitted, Abs format (unit mm)*
G04 Created by KiCad (PCBNEW 7.0.10-7.0.10~ubuntu22.04.1) date 2024-01-31 00:33:20*
%MOMM*%
%LPD*%
G01*
G04 APERTURE LIST*
%ADD10R,6.350000X1.270000*%
%ADD11R,1.700000X1.700000*%
%ADD12O,1.700000X1.700000*%
%ADD13C,7.000000*%
G04 APERTURE END LIST*
D10*
%TO.C,CMALE*%
X56896000Y-42418000D03*
X56896000Y-44958000D03*
X56896000Y-47498000D03*
X56896000Y-50038000D03*
X56896000Y-52578000D03*
X56896000Y-55118000D03*
X56896000Y-57658000D03*
X56896000Y-60198000D03*
X56896000Y-62738000D03*
X56896000Y-65278000D03*
X56896000Y-67818000D03*
X56896000Y-70358000D03*
X56896000Y-72898000D03*
X56896000Y-75438000D03*
X56896000Y-77978000D03*
X56896000Y-80518000D03*
X56896000Y-83058000D03*
X56896000Y-85598000D03*
X56896000Y-88138000D03*
X56896000Y-90678000D03*
%TD*%
D11*
%TO.C,C_FEMALE*%
X139700000Y-42418000D03*
D12*
X144780000Y-42418000D03*
X139700000Y-44958000D03*
X144780000Y-44958000D03*
X139700000Y-47498000D03*
X144780000Y-47498000D03*
X139700000Y-50038000D03*
X144780000Y-50038000D03*
X139700000Y-52578000D03*
X144780000Y-52578000D03*
X139700000Y-55118000D03*
X144780000Y-55118000D03*
X139700000Y-57658000D03*
X144780000Y-57658000D03*
X139700000Y-60198000D03*
X144780000Y-60198000D03*
X139700000Y-62738000D03*
X144780000Y-62738000D03*
X139700000Y-65278000D03*
X144780000Y-65278000D03*
X139700000Y-67818000D03*
X144780000Y-67818000D03*
X139700000Y-70358000D03*
X144780000Y-70358000D03*
X139700000Y-72898000D03*
X144780000Y-72898000D03*
X139700000Y-75438000D03*
X144780000Y-75438000D03*
X139700000Y-77978000D03*
X144780000Y-77978000D03*
X139700000Y-80518000D03*
X144780000Y-80518000D03*
X139700000Y-83058000D03*
X144780000Y-83058000D03*
X139700000Y-85598000D03*
X144780000Y-85598000D03*
X139700000Y-88138000D03*
X144780000Y-88138000D03*
X139700000Y-90678000D03*
X144780000Y-90678000D03*
%TD*%
%TO.C,C_EXT*%
X115570000Y-90678000D03*
X118110000Y-90678000D03*
X115570000Y-88138000D03*
X118110000Y-88138000D03*
X115570000Y-85598000D03*
X118110000Y-85598000D03*
X115570000Y-83058000D03*
X118110000Y-83058000D03*
X115570000Y-80518000D03*
X118110000Y-80518000D03*
X115570000Y-77978000D03*
X118110000Y-77978000D03*
X115570000Y-75438000D03*
X118110000Y-75438000D03*
X115570000Y-72898000D03*
X118110000Y-72898000D03*
X115570000Y-70358000D03*
X118110000Y-70358000D03*
X115570000Y-67818000D03*
X118110000Y-67818000D03*
X115570000Y-65278000D03*
X118110000Y-65278000D03*
X115570000Y-62738000D03*
X118110000Y-62738000D03*
X115570000Y-60198000D03*
X118110000Y-60198000D03*
X115570000Y-57658000D03*
X118110000Y-57658000D03*
X115570000Y-55118000D03*
X118110000Y-55118000D03*
X115570000Y-52578000D03*
X118110000Y-52578000D03*
X115570000Y-50038000D03*
X118110000Y-50038000D03*
X115570000Y-47498000D03*
X118110000Y-47498000D03*
X115570000Y-44958000D03*
X118110000Y-44958000D03*
X115570000Y-42418000D03*
D11*
X118110000Y-42418000D03*
%TD*%
D13*
%TO.C,GND2*%
X103106000Y-22148000D03*
%TD*%
%TO.C,GND4*%
X68706000Y-110948000D03*
%TD*%
%TO.C,GND1*%
X68706000Y-22148000D03*
%TD*%
%TO.C,GND3*%
X140356000Y-22148000D03*
%TD*%
%TO.C,GND6*%
X140356000Y-110948000D03*
%TD*%
%TO.C,GND5*%
X103106000Y-110948000D03*
%TD*%
G36*
X65125454Y-28705916D02*
G01*
X65165108Y-28764807D01*
X65171000Y-28802886D01*
X65171000Y-35942000D01*
X65150998Y-36010121D01*
X65097342Y-36056614D01*
X65045000Y-36068000D01*
X62378191Y-36068000D01*
X62310077Y-36048000D01*
X56814258Y-36048000D01*
X56797812Y-36046922D01*
X56693037Y-36033128D01*
X56661265Y-36024615D01*
X56571326Y-35987361D01*
X56542839Y-35970914D01*
X56465606Y-35911650D01*
X56442349Y-35888393D01*
X56383085Y-35811160D01*
X56366638Y-35782673D01*
X56329384Y-35692734D01*
X56320871Y-35660961D01*
X56307078Y-35556187D01*
X56306000Y-35539742D01*
X56306000Y-30056257D01*
X56307078Y-30039812D01*
X56320871Y-29935038D01*
X56329384Y-29903265D01*
X56366638Y-29813326D01*
X56383085Y-29784839D01*
X56442349Y-29707606D01*
X56465606Y-29684349D01*
X56542839Y-29625085D01*
X56571326Y-29608638D01*
X56661265Y-29571384D01*
X56693038Y-29562871D01*
X56797813Y-29549078D01*
X56814258Y-29548000D01*
X63605998Y-29548000D01*
X63840651Y-29529532D01*
X64069523Y-29474585D01*
X64286984Y-29384510D01*
X64487679Y-29261523D01*
X64487681Y-29261522D01*
X64666660Y-29108660D01*
X64819522Y-28929681D01*
X64819523Y-28929679D01*
X64937567Y-28737051D01*
X64990215Y-28689420D01*
X65060256Y-28677813D01*
X65125454Y-28705916D01*
G37*
G36*
X65113121Y-97048002D02*
G01*
X65159614Y-97101658D01*
X65171000Y-97154000D01*
X65171000Y-104293113D01*
X65150998Y-104361234D01*
X65097342Y-104407727D01*
X65027068Y-104417831D01*
X64962488Y-104388337D01*
X64937568Y-104358948D01*
X64819530Y-104166329D01*
X64819522Y-104166318D01*
X64666660Y-103987339D01*
X64487681Y-103834477D01*
X64487679Y-103834476D01*
X64286984Y-103711489D01*
X64069523Y-103621414D01*
X63840651Y-103566467D01*
X63605998Y-103548000D01*
X56814258Y-103548000D01*
X56797812Y-103546922D01*
X56693037Y-103533128D01*
X56661265Y-103524615D01*
X56571326Y-103487361D01*
X56542839Y-103470914D01*
X56465606Y-103411650D01*
X56442349Y-103388393D01*
X56383085Y-103311160D01*
X56366638Y-103282673D01*
X56329384Y-103192734D01*
X56320871Y-103160961D01*
X56307078Y-103056187D01*
X56306000Y-103039742D01*
X56306000Y-97556257D01*
X56307078Y-97539812D01*
X56320871Y-97435038D01*
X56329384Y-97403265D01*
X56366638Y-97313326D01*
X56383085Y-97284839D01*
X56442349Y-97207606D01*
X56465606Y-97184349D01*
X56542839Y-97125085D01*
X56571326Y-97108638D01*
X56661265Y-97071384D01*
X56693038Y-97062871D01*
X56797813Y-97049078D01*
X56814258Y-97048000D01*
X62320054Y-97048000D01*
X62351408Y-97030879D01*
X62378191Y-97028000D01*
X65045000Y-97028000D01*
X65113121Y-97048002D01*
G37*
G36*
X61048121Y-40068002D02*
G01*
X61094614Y-40121658D01*
X61106000Y-40174000D01*
X61106000Y-92922000D01*
X61085998Y-92990121D01*
X61032342Y-93036614D01*
X60980000Y-93048000D01*
X54361506Y-93048000D01*
X54350524Y-93047521D01*
X54149920Y-93029970D01*
X54128291Y-93026156D01*
X53939123Y-92975469D01*
X53918484Y-92967957D01*
X53740986Y-92885188D01*
X53721966Y-92874206D01*
X53561544Y-92761878D01*
X53544719Y-92747760D01*
X53406239Y-92609280D01*
X53392121Y-92592455D01*
X53279793Y-92432033D01*
X53268811Y-92413013D01*
X53186042Y-92235515D01*
X53178530Y-92214876D01*
X53127843Y-92025708D01*
X53124029Y-92004078D01*
X53106479Y-91803475D01*
X53106000Y-91792494D01*
X53106000Y-41303505D01*
X53106479Y-41292524D01*
X53124029Y-41091921D01*
X53127843Y-41070291D01*
X53178530Y-40881123D01*
X53186042Y-40860484D01*
X53268811Y-40682986D01*
X53279793Y-40663966D01*
X53392121Y-40503544D01*
X53406239Y-40486719D01*
X53544719Y-40348239D01*
X53561544Y-40334121D01*
X53721966Y-40221793D01*
X53740986Y-40210811D01*
X53918484Y-40128042D01*
X53939123Y-40120530D01*
X54128291Y-40069843D01*
X54149921Y-40066029D01*
X54350525Y-40048479D01*
X54361506Y-40048000D01*
X60980000Y-40048000D01*
X61048121Y-40068002D01*
G37*
M02*
