%TF.GenerationSoftware,KiCad,Pcbnew,7.0.10-7.0.10~ubuntu22.04.1*%
%TF.CreationDate,2024-01-31T00:33:20-08:00*%
%TF.ProjectId,r11,7231312e-6b69-4636-9164-5f7063625858,rev?*%
%TF.SameCoordinates,Original*%
%TF.FileFunction,Profile,NP*%
%FSLAX46Y46*%
G04 Gerber Fmt 4.6, Leading zero omitted, Abs format (unit mm)*
G04 Created by KiCad (PCBNEW 7.0.10-7.0.10~ubuntu22.04.1) date 2024-01-31 00:33:20*
%MOMM*%
%LPD*%
G01*
G04 APERTURE LIST*
%TA.AperFunction,Profile*%
%ADD10C,0.150000*%
%TD*%
G04 APERTURE END LIST*
D10*
X151606000Y-18548000D02*
X149606000Y-18548000D01*
X153106000Y-113048000D02*
X153106000Y-20048000D01*
X149606000Y-114548000D02*
X151606000Y-114548000D01*
X65106000Y-20048000D02*
X65106000Y-28048000D01*
X149606000Y-18548000D02*
X66606000Y-18548000D01*
X66606000Y-114548000D02*
X149606000Y-114548000D01*
X65106000Y-105048000D02*
X65106000Y-113048000D01*
X56806000Y-103548000D02*
X63606000Y-103548000D01*
X56306000Y-97548000D02*
X56306000Y-103048000D01*
X56806000Y-97048000D02*
X62306000Y-97048000D01*
X56806000Y-29548000D02*
X63606000Y-29548000D01*
X56306000Y-30048000D02*
X56306000Y-35548000D01*
X56806000Y-36048000D02*
X62306000Y-36048000D01*
X56306000Y-103048000D02*
G75*
G03*
X56806000Y-103548000I500000J0D01*
G01*
X56806000Y-97048000D02*
G75*
G03*
X56306000Y-97548000I0J-500000D01*
G01*
X65106000Y-105048000D02*
G75*
G03*
X63606000Y-103548000I-1500000J0D01*
G01*
X65106000Y-113048000D02*
G75*
G03*
X66606000Y-114548000I1500000J0D01*
G01*
X151606000Y-114548000D02*
G75*
G03*
X153106000Y-113048000I0J1500000D01*
G01*
X153106000Y-20048000D02*
G75*
G03*
X151606000Y-18548000I-1500000J0D01*
G01*
X66606000Y-18548000D02*
G75*
G03*
X65106000Y-20048000I0J-1500000D01*
G01*
X63606000Y-29548000D02*
G75*
G03*
X65106000Y-28048000I0J1500000D01*
G01*
X56806000Y-29548000D02*
G75*
G03*
X56306000Y-30048000I0J-500000D01*
G01*
X56306000Y-35548000D02*
G75*
G03*
X56806000Y-36048000I500000J0D01*
G01*
X53106000Y-41298000D02*
X53106000Y-41548000D01*
X54356000Y-40048000D02*
X55106000Y-40048000D01*
X54356000Y-40048000D02*
G75*
G03*
X53106000Y-41298000I0J-1250000D01*
G01*
X53106000Y-91798000D02*
X53106000Y-91548000D01*
X54356000Y-93048000D02*
X55106000Y-93048000D01*
X53106000Y-91798000D02*
G75*
G03*
X54356000Y-93048000I1250000J0D01*
G01*
X62306000Y-93048000D02*
X62306000Y-97048000D01*
X55106000Y-93048000D02*
X62306000Y-93048000D01*
X62306000Y-40048000D02*
X62306000Y-36048000D01*
X55106000Y-40048000D02*
X62306000Y-40048000D01*
X53106000Y-41548000D02*
X53106000Y-91548000D01*
M02*
